<svg id="Layer_1" data-name="Layer 1" xmlns="http://www.w3.org/2000/svg" width="50" height="50" viewBox="0 0 50 50"><defs><style>.cls-1{fill:#838f9b;}.cls-2{fill:#f48270;}.cls-3{fill:#cdd2d9;}.cls-4{fill:#e7e9ed;}.cls-5{fill:#51c1e9;}.cls-6{fill:#f0d0b4;}.cls-7{fill:#b6d881;}.cls-8{fill:#fcd770;}.cls-9{fill:#f36f54;}.cls-10{fill:#606b7a;}</style></defs><title>icons.0</title><path class="cls-1" d="M14.52,29V46.77a2.42,2.42,0,0,1-2.42,2.42,2.42,2.42,0,0,1-2.42-2.42V31.65a2.43,2.43,0,0,1,.71-1.71l.9-.91Z"/><path class="cls-1" d="M11.29,29l-.9.91a2.43,2.43,0,0,0-.71,1.71V46.77a2.42,2.42,0,0,1-4.84,0V29Z"/><path class="cls-2" d="M14.52,21.48a8.05,8.05,0,0,0,0,7V29H4.84v2.42H3.23A2.42,2.42,0,0,1,.81,29V21A8.88,8.88,0,0,1,3.4,14.69,8.68,8.68,0,0,1,6,12.89a19.2,19.2,0,0,0,2.21,6.57c.25.48.54.95.84,1.41l.61.9.63-.95c.29-.43.56-.88.82-1.34h0a19.21,19.21,0,0,0,2.23-6.58,8.85,8.85,0,0,1,4.63,5A8.06,8.06,0,0,0,14.52,21.48Z"/><path class="cls-3" d="M8.75,12.15l-.52,7.31A19.2,19.2,0,0,1,6,12.89,8.3,8.3,0,0,1,8.75,12.15Z"/><path class="cls-4" d="M42.74,18.55a6.46,6.46,0,0,1,4.49,11.09,4.84,4.84,0,0,0-4.49-3,2.42,2.42,0,1,0-2.42-2.42,2.42,2.42,0,0,0,2.42,2.42,4.83,4.83,0,0,0-4.48,3,6.45,6.45,0,0,1,4.48-11.09Z"/><path class="cls-5" d="M42.74,26.61a4.84,4.84,0,0,1,4.49,3,6.46,6.46,0,0,1-9,0A4.83,4.83,0,0,1,42.74,26.61Z"/><circle class="cls-6" cx="42.74" cy="24.19" r="2.42"/><path class="cls-4" d="M36.29.81A6.45,6.45,0,0,1,40.77,11.9a4.82,4.82,0,0,0-4.48-3,2.42,2.42,0,1,0-2.42-2.42,2.42,2.42,0,0,0,2.42,2.42,4.82,4.82,0,0,0-4.48,3A6.45,6.45,0,0,1,36.29.81Z"/><path class="cls-4" d="M36.29,36.29a6.45,6.45,0,0,1,4.48,11.09,4.82,4.82,0,0,0-4.48-3,2.42,2.42,0,1,0-2.42-2.41,2.41,2.41,0,0,0,2.42,2.41,4.82,4.82,0,0,0-4.48,3,6.45,6.45,0,0,1,1.83-10.52A6.33,6.33,0,0,1,36.29,36.29Z"/><path class="cls-7" d="M36.29,8.87a4.82,4.82,0,0,1,4.48,3,6.43,6.43,0,0,1-4.48,1.81,6.33,6.33,0,0,1-2.65-.57,6.57,6.57,0,0,1-1.83-1.24A4.82,4.82,0,0,1,36.29,8.87Z"/><path class="cls-7" d="M36.29,44.35a4.82,4.82,0,0,1,4.48,3,6.45,6.45,0,0,1-9,0A4.82,4.82,0,0,1,36.29,44.35Z"/><circle class="cls-6" cx="36.29" cy="6.45" r="2.42"/><circle class="cls-6" cx="36.29" cy="41.94" r="2.42"/><path class="cls-8" d="M27.48,19.3A8.07,8.07,0,1,1,18,17.88a7.93,7.93,0,0,1,3.78-.94A8,8,0,0,1,27.48,19.3Z"/><circle class="cls-6" cx="9.68" cy="6.45" r="5.65"/><path class="cls-3" d="M13.36,12.9h0a19.21,19.21,0,0,1-2.23,6.58l-.53-7.33A8.24,8.24,0,0,1,13.36,12.9Z"/><path class="cls-9" d="M10.6,12.15l.53,7.33h0c-.26.46-.53.91-.82,1.34l-.63.95-.61-.9c-.3-.46-.59-.93-.84-1.41l.52-7.31a7.15,7.15,0,0,1,.93-.05,7,7,0,0,1,.92.05Z"/><path class="cls-10" d="M30.6,25.81h4.93a7.26,7.26,0,1,0,0-1.62H30.6a8.75,8.75,0,0,0-2-4.86l5.25-5.25a7.1,7.1,0,0,0,2.45.44,7.29,7.29,0,1,0-4-1.2l-4.86,4.87a8.82,8.82,0,0,0-9-1.39,9.72,9.72,0,0,0-5.33-4.88,6.45,6.45,0,1,0-6.81,0A9.68,9.68,0,0,0,0,21V29a3.23,3.23,0,0,0,3.23,3.23H4V46.77a3.22,3.22,0,0,0,5.65,2.12,3.21,3.21,0,0,0,5.64-2.12V31.07a8.84,8.84,0,0,0,12.13.74l4.86,4.87a7.25,7.25,0,1,0,4-1.2,7.1,7.1,0,0,0-2.45.44l-5.25-5.25a8.75,8.75,0,0,0,2-4.86Zm2.21-14.12a4,4,0,0,1,7,0,5.61,5.61,0,0,1-7,0Zm1.87-5.24a1.61,1.61,0,1,1,1.61,1.61A1.61,1.61,0,0,1,34.68,6.45Zm1.61-4.84a5.63,5.63,0,0,1,4.62,8.88A5.51,5.51,0,0,0,38.68,8.6a3.23,3.23,0,1,0-4.78,0,5.51,5.51,0,0,0-2.23,1.89,5.64,5.64,0,0,1,4.62-8.88ZM32.81,47.17a4,4,0,0,1,7,0,5.57,5.57,0,0,1-7,0Zm1.87-5.23a1.61,1.61,0,1,1,1.61,1.61A1.62,1.62,0,0,1,34.68,41.94Zm7.26.8a5.65,5.65,0,0,1-1,3.24,5.54,5.54,0,0,0-2.23-1.9,3.23,3.23,0,1,0-4.78,0A5.54,5.54,0,0,0,31.67,46a5.64,5.64,0,1,1,10.27-3.24ZM39.26,29.43a4,4,0,0,1,7,0,5.59,5.59,0,0,1-7,0Zm1.87-5.24a1.61,1.61,0,1,1,1.61,1.62,1.61,1.61,0,0,1-1.61-1.62Zm1.61-4.84A5.66,5.66,0,0,1,48.39,25a5.55,5.55,0,0,1-1,3.23,5.51,5.51,0,0,0-2.23-1.89A3.18,3.18,0,0,0,46,24.19a3.23,3.23,0,1,0-5.62,2.15,5.58,5.58,0,0,0-2.23,1.89,5.64,5.64,0,0,1,4.62-8.88Zm-35.81-6a7,7,0,0,1,1-.29l-.22,3.08A18.18,18.18,0,0,1,6.93,13.4Zm2.58-.49h.34l.45,6.38c-.2.35-.4.7-.62,1-.22-.34-.43-.68-.63-1Zm2.19,3.31-.22-3.11a8.35,8.35,0,0,1,1,.3,17.4,17.4,0,0,1-.75,2.81ZM4.84,6.45a4.84,4.84,0,1,1,4.84,4.84A4.84,4.84,0,0,1,4.84,6.45ZM3.23,30.65A1.63,1.63,0,0,1,1.61,29V21a8.08,8.08,0,0,1,3.81-6.84,20.4,20.4,0,0,0,3,7.19l1.28,1.91,1.3-2a20.51,20.51,0,0,0,3-7.12,8.1,8.1,0,0,1,3,3.4,9.15,9.15,0,0,0-1.66,1.38v-2H13.71v4.39a8.72,8.72,0,0,0-.19,6.9H5.65V16.94H4V30.65Zm4,17.74a1.62,1.62,0,0,1-1.61-1.62V29.84H9.43a3.2,3.2,0,0,0-.56,1.81V46.77A1.62,1.62,0,0,1,7.26,48.39Zm4.84,0a1.63,1.63,0,0,1-1.62-1.62V31.65A1.58,1.58,0,0,1,11,30.51l.66-.67h2.09V46.77A1.62,1.62,0,0,1,12.1,48.39Zm9.67-16.13A7.26,7.26,0,1,1,29,25a7.26,7.26,0,0,1-7.26,7.26Z"/><path class="cls-10" d="M22.58,22.58a.81.81,0,0,1,.81.81H25A2.42,2.42,0,0,0,22.58,21V19.35H21V21H18.55v2.42A2.42,2.42,0,0,0,21,25.81h1.61a.8.8,0,0,1,.81.8v.81H21a.81.81,0,0,1-.81-.81H18.55A2.42,2.42,0,0,0,21,29v1.62h1.61V29H25V26.61a2.43,2.43,0,0,0-2.42-2.42H21a.8.8,0,0,1-.81-.8v-.81Z"/></svg>