<svg id="Layer_1" data-name="Layer 1" xmlns="http://www.w3.org/2000/svg" width="50" height="50" viewBox="0 0 50 50"><defs><style>.cls-1{fill:#e7e4dd;}.cls-2{fill:#768190;}.cls-3{fill:#a9b1bd;}.cls-4{fill:#ebf7fe;}.cls-5{fill:#669e4f;}.cls-6{fill:#78b75a;}.cls-7{fill:#97cc7f;}.cls-8{fill:#8893a1;}.cls-9{fill:#485875;}</style></defs><title>icons.0</title><path class="cls-1" d="M13.82,31.45H2.42A1.61,1.61,0,0,1,.81,29.84V2.42A1.61,1.61,0,0,1,2.42.81H44.35A1.61,1.61,0,0,1,46,2.42V29.84a1.61,1.61,0,0,1-1.62,1.61H36.18"/><path class="cls-2" d="M31.45,36.29,34.11,39a.81.81,0,0,0,1.14,0l3.7-3.7a.81.81,0,0,0,0-1.14l-2.66-2.66"/><circle class="cls-3" cx="25" cy="25" r="12.9"/><circle class="cls-4" cx="25" cy="25" r="9.68"/><path class="cls-5" d="M12.2,26.61H5.65V23.39H12.2"/><path class="cls-5" d="M37.8,23.39h3.33v3.22H37.8"/><path class="cls-6" d="M34.54,26.61H15.46a9.33,9.33,0,0,1,0-3.22H34.54a9.33,9.33,0,0,1,0,3.22Z"/><path class="cls-7" d="M34.54,23.39a9.46,9.46,0,0,0-1.16-3.23H31.45v3.23Z"/><path class="cls-7" d="M23.39,23.39V18.55h3.22v4.84"/><path class="cls-7" d="M15.46,23.39a9.65,9.65,0,0,1,3.09-5.6h0v5.6Z"/><path class="cls-6" d="M18.55,13.82a12.93,12.93,0,0,0-3.23,2.65V8.87h3.23Z"/><path class="cls-6" d="M7.26,23.39V4h3.22V23.39"/><path class="cls-8" d="M35.48,38.71l9.82,9.82a2.31,2.31,0,0,0,1.61.66,2.28,2.28,0,0,0,2.28-2.28,2.31,2.31,0,0,0-.66-1.61l-9.82-9.82"/><path class="cls-9" d="M25,14.52A10.48,10.48,0,1,0,35.48,25,10.49,10.49,0,0,0,25,14.52ZM16.13,25c0-.27,0-.54,0-.81H33.83c0,.27,0,.54,0,.81s0,.54,0,.81H16.17C16.15,25.54,16.13,25.27,16.13,25Zm9.68-2.42H24.19V19.35h1.62ZM32.89,21a9,9,0,0,1,.64,1.61H32.26V21Zm-1.05-1.62h-.39a.81.81,0,0,0-.8.81v2.42H27.42v-4a.81.81,0,0,0-.81-.81H23.39a.81.81,0,0,0-.81.81v4H19.35V18.16a8.88,8.88,0,0,1,12.49,1.19Zm-14.1.57v2.66H16.47A9,9,0,0,1,17.74,19.92Zm2.18,12.34H30.08a8.82,8.82,0,0,1-10.16,0Zm11.92-1.61H18.16a9,9,0,0,1-1.69-3.23H33.53A9,9,0,0,1,31.84,30.65Z"/><path class="cls-9" d="M49.1,44.73l-9.31-9.3a1.6,1.6,0,0,0-.27-1.89l-1.28-1.28h6.11a2.42,2.42,0,0,0,2.42-2.42V2.42A2.42,2.42,0,0,0,44.35,0H2.42A2.43,2.43,0,0,0,0,2.42V29.84a2.43,2.43,0,0,0,2.42,2.42h11A13.72,13.72,0,0,0,25,38.71a13.57,13.57,0,0,0,6.22-1.51l2.32,2.32a1.6,1.6,0,0,0,1.14.47,1.56,1.56,0,0,0,.75-.2l9.3,9.31A3.09,3.09,0,0,0,50,46.91a3.11,3.11,0,0,0-.9-2.18ZM2.42,30.65a.82.82,0,0,1-.81-.81V2.42a.81.81,0,0,1,.81-.81H44.35a.81.81,0,0,1,.81.81V29.84a.81.81,0,0,1-.81.81H37.48a13.62,13.62,0,0,0,1-3.23h2.65a.81.81,0,0,0,.81-.81V23.39a.81.81,0,0,0-.81-.81H38.48A13.67,13.67,0,0,0,19.35,12.52V8.87a.81.81,0,0,0-.8-.81H15.32a.81.81,0,0,0-.8.81v7.31a13.6,13.6,0,0,0-3,6.4h-.23V4a.8.8,0,0,0-.81-.8H7.26a.8.8,0,0,0-.81.8V22.58h-.8a.81.81,0,0,0-.81.81v3.22a.81.81,0,0,0,.81.81h5.87a13.62,13.62,0,0,0,1,3.23Zm36.25-6.46h1.65v1.62H38.67c0-.27,0-.54,0-.81S38.68,24.46,38.67,24.19ZM17.74,13.39a14.13,14.13,0,0,0-1.61,1.18V9.68h1.61ZM11.33,25.81H6.45V24.19h4.88c0,.27,0,.54,0,.81S11.32,25.54,11.33,25.81ZM9.68,22.58H8.06V4.84H9.68ZM12.9,25A12.1,12.1,0,1,1,25,37.1,12.12,12.12,0,0,1,12.9,25ZM32.66,36.36a13.57,13.57,0,0,0,3.7-3.7l2,2-3.7,3.7Zm14.25,12a1.45,1.45,0,0,1-1-.44l-9.25-9.24,2.09-2.09L48,45.87a1.45,1.45,0,0,1,.44,1A1.48,1.48,0,0,1,46.91,48.39Z"/></svg>