<svg id="Layer_1" data-name="Layer 1" xmlns="http://www.w3.org/2000/svg" width="54.69" height="47.03" viewBox="0 0 54.69 47.03"><defs><style>.cls-1{fill:#606b7a;}.cls-2{fill:#cac8c6;}.cls-3{fill:#e7e6e4;}.cls-4,.cls-5{fill:#7bbbe6;}.cls-5{font-size:10px;font-family:BebasNeue-Bold, Bebas Neue;font-weight:700;letter-spacing:0.05em;}</style></defs><title>icons.0</title><rect class="cls-1" width="54.69" height="47.03"/><path class="cls-2" d="M2.35,2.36h50V44.67h-50Z"/><path class="cls-3" d="M2.35,2.36h50v13h-50Z"/><path class="cls-4" d="M5,18H49.74V42.06H5Z"/><path class="cls-3" d="M21.59,18h1.52V42.06H21.59Z"/><path class="cls-3" d="M28.43,18H30V42.06H28.43Z"/><path class="cls-3" d="M35.28,18H36.8V42.06H35.28Z"/><path class="cls-3" d="M42.13,18h1.52V42.06H42.13Z"/><path class="cls-3" d="M8.54,18h1.52V42.06H8.54Z"/><path class="cls-3" d="M5,23.26H49.74v1.52H5Z"/><path class="cls-3" d="M5,29.27H49.74V30.8H5Z"/><path class="cls-3" d="M5,35.29H49.74v1.52H5Z"/><text class="cls-5" transform="translate(7.54 12.41)">DASHBOARD</text></svg>