<svg id="Layer_1" data-name="Layer 1" xmlns="http://www.w3.org/2000/svg" width="50" height="50" viewBox="0 0 50 50"><defs><style>.cls-1{fill:#e7e9ed;}.cls-2{fill:#b6d881;}.cls-3{fill:#f0d0b4;}.cls-4{fill:#f48270;}.cls-5{fill:#606b7a;}</style></defs><title>icons.0</title><circle class="cls-1" cx="25" cy="7.26" r="6.45"/><circle class="cls-1" cx="42.74" cy="25" r="6.45"/><circle class="cls-1" cx="25" cy="42.74" r="6.45"/><path class="cls-2" d="M10.48,21.77V33.06H.81V21Z"/><path class="cls-3" d="M26.61,23.39a1.56,1.56,0,0,1,1.14.47A1.59,1.59,0,0,1,28.23,25a1.62,1.62,0,0,1-1.62,1.61,1.63,1.63,0,0,1,1.62,1.62,1.64,1.64,0,0,1-1.62,1.61H25a1.62,1.62,0,0,1,1.14.47,1.58,1.58,0,0,1,.47,1.14A1.61,1.61,0,0,1,25,33.06H10.48V21.77l.22-.65a5,5,0,0,1,2.19-2.72,5,5,0,0,0,2.43-4.31v-2a1.64,1.64,0,0,1,1.62-1.62,3.23,3.23,0,0,1,3.22,3.23v4a2.42,2.42,0,0,0,2.42,2.42h4a1.64,1.64,0,0,1,1.62,1.61,1.63,1.63,0,0,1-1.62,1.62Z"/><circle class="cls-3" cx="25" cy="41.94" r="2.42"/><path class="cls-4" d="M29,47.81h0a6.46,6.46,0,0,1-8,0h0a4,4,0,0,1,8,0Z"/><path class="cls-5" d="M25,35.48a7.26,7.26,0,1,0,7.26,7.26A7.27,7.27,0,0,0,25,35.48Zm-3.08,12a3.21,3.21,0,0,1,6.16,0,5.62,5.62,0,0,1-6.16,0Zm1.47-5.53A1.61,1.61,0,1,1,25,43.55,1.62,1.62,0,0,1,23.39,41.94Zm6,4.39a4.87,4.87,0,0,0-2-2.17,3.19,3.19,0,0,0,.91-2.22,3.23,3.23,0,0,0-6.46,0,3.19,3.19,0,0,0,.91,2.22,4.87,4.87,0,0,0-2,2.17,5.65,5.65,0,1,1,8.72,0Z"/><path class="cls-5" d="M25,0a7.27,7.27,0,0,0-7.26,7.26,7.36,7.36,0,0,0,.51,2.66,3.81,3.81,0,0,0-1.31-.24,2.42,2.42,0,0,0-2.42,2.42v2a4.26,4.26,0,0,1-2,3.62,5.81,5.81,0,0,0-2.53,3.15l0,.06L0,20.09V33.87H25a2.42,2.42,0,0,0,2.42-2.42,2.45,2.45,0,0,0-.18-.9,2.4,2.4,0,0,0,1.16-3.94,2.37,2.37,0,0,0,0-3.22A2.39,2.39,0,0,0,29,21.77a2.42,2.42,0,0,0-2.42-2.42h-4A1.61,1.61,0,0,1,21,17.74v-4a3.26,3.26,0,0,0,0-.45A7.26,7.26,0,1,0,25,0ZM9.68,32.26H1.61V21.84l8.07.68ZM22.58,21h4a.81.81,0,1,1,0,1.61H21v1.61h5.64a.81.81,0,0,1,0,1.62H21v1.61h5.64a.81.81,0,1,1,0,1.61H21v1.62h4a.81.81,0,1,1,0,1.61H11.29V21.9l.18-.53a4.26,4.26,0,0,1,1.83-2.28,5.85,5.85,0,0,0,2.83-5v-2a.81.81,0,0,1,.81-.81,2.43,2.43,0,0,1,2.42,2.42v4A3.22,3.22,0,0,0,22.58,21ZM25,12.9a5.65,5.65,0,1,1,5.65-5.64A5.65,5.65,0,0,1,25,12.9Z"/><path class="cls-5" d="M42.74,17.74A7.26,7.26,0,1,0,50,25,7.27,7.27,0,0,0,42.74,17.74Zm0,12.91A5.65,5.65,0,1,1,48.39,25,5.65,5.65,0,0,1,42.74,30.65Z"/><path class="cls-5" d="M45.16,22.58v3.23H43.55V21H41.94v4.84H40.32V24.19H38.71v3.23h8.06V22.58Z"/><path class="cls-5" d="M24.19,6.45h1.62V8.06H24.19Z"/><path class="cls-5" d="M27.42,6.45H29V8.06H27.42Z"/><path class="cls-5" d="M21,6.45h1.61V8.06H21Z"/><path class="cls-5" d="M42.06,14.14l1.08,1.71,1.2-6-1.58-.32-.43,2.16a21,21,0,0,0-8.12-6.42l-.68,1.47A19.09,19.09,0,0,1,42.06,14.14Z"/><path class="cls-5" d="M5.26,15.79l1.47.68a19.2,19.2,0,0,1,7.41-8.53l1.71-1.07-6-1.21L9.52,7.24l2.16.43A21,21,0,0,0,5.26,15.79Z"/><path class="cls-5" d="M7.94,35.86,6.86,34.15l-1.2,6,1.58.32.43-2.16a21,21,0,0,0,8.12,6.42l.68-1.47A19.09,19.09,0,0,1,7.94,35.86Z"/><path class="cls-5" d="M44.74,34.21l-1.47-.68a19.2,19.2,0,0,1-7.41,8.53l-1.71,1.07,6,1.21.32-1.58-2.16-.44a20.87,20.87,0,0,0,6.42-8.11Z"/></svg>