<svg id="Layer_1" data-name="Layer 1" xmlns="http://www.w3.org/2000/svg" width="50" height="50" viewBox="0 0 50 50"><defs><style>.cls-1{fill:#48a1d9;}.cls-2{opacity:0.2;}.cls-3{fill:#f5e781;}.cls-4{fill:#a2c5e8;}.cls-5{fill:#e5f5fd;}.cls-6{fill:#d3eefb;}.cls-7{fill:#606b7a;}.cls-8{fill:#f9d011;}</style></defs><title>icons.0</title><path class="cls-1" d="M37.11,8A21.75,21.75,0,0,0,16.29,3.17L15.14,1.22a1,1,0,0,0-1.71,0L9.32,8.55A1,1,0,0,0,10.19,10l8.39-.1a1,1,0,0,0,.84-1.49l-1-1.74a17.78,17.78,0,0,1,21.8,16.83A17.76,17.76,0,1,1,4.68,24H.73A21.7,21.7,0,0,0,22,45.68,21.7,21.7,0,0,0,37.11,8Z"/><path class="cls-2" d="M39.12,10.1A22.71,22.71,0,0,1,9.63,41.51,21.71,21.71,0,0,0,39.12,10.1Z"/><circle class="cls-3" cx="22.44" cy="23.99" r="1.97"/><circle class="cls-4" cx="35.18" cy="35.18" r="11.84"/><circle class="cls-5" cx="35.18" cy="35.18" r="8.68"/><path class="cls-6" d="M40.42,28.26a8.59,8.59,0,0,1,1.76,5.24,8.68,8.68,0,0,1-8.68,8.68,8.59,8.59,0,0,1-5.24-1.76A8.68,8.68,0,1,0,40.42,28.26Z"/><path class="cls-7" d="M22.44,9.44a.74.74,0,0,0-.74.74v11.2a2.75,2.75,0,0,0-1.87,1.87H12.57a.74.74,0,0,0,0,1.47h7.26a2.71,2.71,0,1,0,3.34-3.34V10.18A.74.74,0,0,0,22.44,9.44ZM23.68,24a1.25,1.25,0,1,1-1.24-1.24A1.25,1.25,0,0,1,23.68,24Z"/><path class="cls-7" d="M46.75,41.25a13,13,0,0,0,1-6.07,12.49,12.49,0,0,0-3.08-8.24A22.44,22.44,0,0,0,22.2,1.55a22.65,22.65,0,0,0-5.56.76L15.77.84a1.72,1.72,0,0,0-3,0L8.68,8.19a1.73,1.73,0,0,0,0,1.72,1.71,1.71,0,0,0,1.5.84l8.39-.1a1.69,1.69,0,0,0,1.48-.87,1.73,1.73,0,0,0,0-1.72l-.51-.85A18.42,18.42,0,0,1,22.22,7a17.06,17.06,0,0,1,8.87,2.38.73.73,0,0,0,1-.25.75.75,0,0,0-.26-1A18.38,18.38,0,0,0,22.2,5.5a18.92,18.92,0,0,0-4,.48.71.71,0,0,0-.51.43.73.73,0,0,0,.05.66l1,1.74a.26.26,0,0,1-.22.38l-8.39.09h0A.25.25,0,0,1,10,9.16a.24.24,0,0,1,0-.25l4.11-7.32a.23.23,0,0,1,.22-.12.23.23,0,0,1,.22.12l1.15,2a.75.75,0,0,0,.84.33A21,21,0,0,1,43.41,24c0,.54,0,1.09-.07,1.63A11.63,11.63,0,0,0,40.92,24v-.49a18.54,18.54,0,0,0-6.21-13.33.73.73,0,0,0-1,1.1,17.1,17.1,0,0,1,5.71,12.08,12.58,12.58,0,0,0-13.16,2.93A12.6,12.6,0,0,0,24,40.94c-.52.05-1,.07-1.56.07a17,17,0,0,1-17-17,.74.74,0,0,0-.73-.74H.73A.74.74,0,0,0,0,24,22.31,22.31,0,0,0,6.47,39.75a21.58,21.58,0,0,0,2.08,1.86.73.73,0,0,0,.91-1.15,21.44,21.44,0,0,1-2-1.74,20.8,20.8,0,0,1-6-14H4A18.52,18.52,0,0,0,22.44,42.48a19.06,19.06,0,0,0,2.39-.16,13.41,13.41,0,0,0,1.46,1.75l.47.44A20.57,20.57,0,0,1,22,45a21,21,0,0,1-9.81-2.67.72.72,0,0,0-1,.28.74.74,0,0,0,.28,1A22.58,22.58,0,0,0,22,46.42h.49a22.7,22.7,0,0,0,5.81-.75,12.57,12.57,0,0,0,6.93,2.07,14.36,14.36,0,0,0,6.35-1.27s2.21-1.6,2.87-2.25S46.75,41.25,46.75,41.25ZM27.32,43A11.11,11.11,0,1,1,43,43,11.07,11.07,0,0,1,27.32,43Zm14.21,3.44a21.91,21.91,0,0,0,2.87-2.25c.85-.92,2.35-3,2.35-3"/><path class="cls-8" d="M40.62,34,42,33.46l-.72-1.78-1.41.57a5.61,5.61,0,0,0-1.69-1.74l.59-1.39L37,28.37l-.59,1.39a5.69,5.69,0,0,0-2.43,0l-.56-1.41L31.68,29l.57,1.41a5.54,5.54,0,0,0-1.74,1.7l-1.39-.6-.75,1.76,1.39.6a5.64,5.64,0,0,0,0,2.42l-1.41.57L29,38.68l1.41-.57a5.5,5.5,0,0,0,1.7,1.73l-.6,1.4,1.76.75.6-1.4a5.49,5.49,0,0,0,2.42,0L36.9,42l1.78-.72-.57-1.41a5.48,5.48,0,0,0,1.73-1.69l1.4.59L42,37l-1.4-.59a5.54,5.54,0,0,0,0-2.43Zm-4.18,4.29a3.37,3.37,0,1,1,1.87-4.39,3.39,3.39,0,0,1-1.87,4.39Z"/><path class="cls-7" d="M34.1,32.5a.48.48,0,0,0,.25-.64.49.49,0,0,0-.61-.26,3.83,3.83,0,1,0,4.23.91.49.49,0,0,0-.69,0,.47.47,0,0,0,0,.67,2.88,2.88,0,1,1-3.17-.68Z"/><path class="cls-7" d="M35.92,32.39a.49.49,0,0,0,.6-.34.49.49,0,0,0-.35-.6h0l-.26-.06a.48.48,0,0,0-.19,1Z"/><path class="cls-7" d="M40.11,37.8a.5.5,0,0,0-.68.14h0a4.88,4.88,0,0,1-1.58,1.55.48.48,0,0,0-.19.59l.39,1-.88.36-.39-1a.48.48,0,0,0-.55-.3,5,5,0,0,1-2.21,0,.48.48,0,0,0-.56.28l-.4,1L32.19,41,32.6,40a.49.49,0,0,0-.19-.6,5,5,0,0,1-1.54-1.58.49.49,0,0,0-.6-.19l-1,.39L29,37.17l1-.39a.48.48,0,0,0,.29-.55,5,5,0,0,1,0-2.21.49.49,0,0,0-.29-.56l-.95-.4.56-1.32a.48.48,0,0,0-.25-.63.48.48,0,0,0-.64.25h0l-.75,1.76a.49.49,0,0,0,.25.64h0l1,.44a5.91,5.91,0,0,0,0,1.83l-1,.42a.48.48,0,0,0-.27.63l.71,1.78a.48.48,0,0,0,.63.27l1.05-.42A5.64,5.64,0,0,0,31.55,40l-.44,1a.48.48,0,0,0,.25.64h0l1.76.75a.49.49,0,0,0,.64-.26h0l.44-1a5.62,5.62,0,0,0,1.83,0l.42,1.05a.48.48,0,0,0,.63.27l1.78-.72a.48.48,0,0,0,.27-.63l-.42-1a6.09,6.09,0,0,0,1.54-1.62.48.48,0,0,0-.14-.67Z"/><path class="cls-7" d="M42.48,33.27l-.72-1.77a.48.48,0,0,0-.63-.27l-1,.42a6.12,6.12,0,0,0-1.28-1.31l.44-1a.48.48,0,0,0-.26-.64h0l-1.76-.75a.49.49,0,0,0-.64.25h0l-.44,1a5.85,5.85,0,0,0-1.82,0l-.42-1a.49.49,0,0,0-.63-.27l-1.78.71a.49.49,0,0,0-.27.64h0l.42,1a5.8,5.8,0,0,0-1.54,1.62.48.48,0,1,0,.81.52,5.16,5.16,0,0,1,1.58-1.54.51.51,0,0,0,.2-.6l-.39-1,.88-.35.38,1a.48.48,0,0,0,.55.29,5,5,0,0,1,2.21,0,.49.49,0,0,0,.56-.29L37.3,29l.87.37-.41.95a.49.49,0,0,0,.18.6,5.08,5.08,0,0,1,1.55,1.58.49.49,0,0,0,.59.2l1-.39.36.88-1,.38a.49.49,0,0,0-.3.55,5,5,0,0,1,0,2.22.47.47,0,0,0,.28.55l1,.41-.56,1.31a.48.48,0,0,0,.27.63.49.49,0,0,0,.63-.25l.75-1.76a.5.5,0,0,0-.26-.64h0l-1-.44a5.91,5.91,0,0,0,0-1.83l1.05-.42a.48.48,0,0,0,.27-.63Z"/></svg>