<svg id="Layer_1" data-name="Layer 1" xmlns="http://www.w3.org/2000/svg" width="50" height="54.1" viewBox="0 0 50 54.1"><defs><style>.cls-1{fill:#f9d011;}.cls-2{fill:#c0702a;}.cls-3{fill:#606b7a;}.cls-4{fill:#edc964;}.cls-5{fill:#a9b1bd;}.cls-6{fill:#e6b93f;}.cls-7{fill:#969eb0;}.cls-8{fill:#dbd8db;}.cls-9{fill:#c8c5c9;}.cls-10{fill:#b6da9e;}.cls-11{fill:#c1d8f0;}.cls-12{fill:#e0667d;}.cls-13{fill:#a7afc4;}</style></defs><title>icons.0</title><path class="cls-1" d="M31.68,13.58,33.09,13l-.71-1.78L31,11.8a5.4,5.4,0,0,0-1.7-1.73l.6-1.4-1.76-.75-.6,1.4a5.49,5.49,0,0,0-2.42,0l-.57-1.41-1.78.72L23.31,10a5.58,5.58,0,0,0-1.73,1.69l-1.4-.59-.75,1.76,1.4.59a5.54,5.54,0,0,0,0,2.43l-1.41.56.72,1.78,1.41-.57a5.48,5.48,0,0,0,1.69,1.73l-.59,1.4,1.76.75.59-1.4a5.54,5.54,0,0,0,2.43,0L28,21.58l1.77-.71-.57-1.41a5.54,5.54,0,0,0,1.74-1.7l1.39.6.76-1.77L31.66,16a5.64,5.64,0,0,0,0-2.42ZM27.5,17.86a3.37,3.37,0,1,1,1.87-4.38,3.36,3.36,0,0,1-1.87,4.38Z"/><path class="cls-2" d="M40.8,6.33V4.92H39.68A4,4,0,0,0,39,3.28l.79-.79-1-1L38,2.28a4.13,4.13,0,0,0-1.65-.68V.49H35V1.6a4.07,4.07,0,0,0-1.65.68l-.79-.79-1,1,.79.79a4.11,4.11,0,0,0-.69,1.64H30.52V6.33h1.11A4.35,4.35,0,0,0,32.31,8l-.78.79,1,1L33.31,9A3.94,3.94,0,0,0,35,9.65v1.12h1.4V9.65A4,4,0,0,0,38,9l.79.79,1-1L39,8a4,4,0,0,0,.68-1.65ZM35.66,7.5a1.88,1.88,0,1,1,1.87-1.87A1.87,1.87,0,0,1,35.66,7.5Z"/><path class="cls-3" d="M25.17,12.05a.48.48,0,0,0,.25-.63.49.49,0,0,0-.61-.27,3.85,3.85,0,1,0,5,2.14A3.66,3.66,0,0,0,29,12.07a.48.48,0,0,0-.68,0,.49.49,0,0,0,0,.68,2.89,2.89,0,1,1-4.08-.09,2.92,2.92,0,0,1,.92-.6Z"/><path class="cls-3" d="M27,11.94a.48.48,0,1,0,.25-.93h0L27,10.94a.5.5,0,0,0-.56.4.48.48,0,0,0,.38.56Z"/><path class="cls-3" d="M31.17,17.35a.49.49,0,0,0-.67.15h0A5.16,5.16,0,0,1,28.92,19a.51.51,0,0,0-.2.6l.39,1-.88.35-.38-1a.48.48,0,0,0-.55-.29,5.15,5.15,0,0,1-2.21,0,.5.5,0,0,0-.56.28l-.41,1-.86-.37.4-.95a.49.49,0,0,0-.18-.6,5.08,5.08,0,0,1-1.55-1.58.49.49,0,0,0-.59-.2l-1,.39L20,16.72l.95-.38a.49.49,0,0,0,.3-.56,5,5,0,0,1,0-2.21A.46.46,0,0,0,21,13l-.95-.41.56-1.31a.49.49,0,0,0-.26-.64.49.49,0,0,0-.64.26h0L19,12.68a.47.47,0,0,0,.25.63h0l1,.45a5.85,5.85,0,0,0,0,1.82L19.21,16a.49.49,0,0,0-.27.64l.72,1.77a.48.48,0,0,0,.63.27l1-.42a6.12,6.12,0,0,0,1.28,1.31l-.44,1a.49.49,0,0,0,.26.64h0l1.76.75a.49.49,0,0,0,.64-.25h0l.44-1a5.91,5.91,0,0,0,1.83,0l.42,1a.48.48,0,0,0,.63.27l1.77-.71a.49.49,0,0,0,.27-.63l-.42-1.05A5.8,5.8,0,0,0,31.31,18a.48.48,0,0,0-.14-.67Z"/><path class="cls-3" d="M33.54,12.83l-.71-1.78a.48.48,0,0,0-.63-.27l-1.05.42a5.64,5.64,0,0,0-1.28-1.3l.44-1a.48.48,0,0,0-.25-.64h0L28.3,7.47a.49.49,0,0,0-.64.26h0l-.44,1a6.24,6.24,0,0,0-1.83,0L25,7.7a.48.48,0,0,0-.63-.27l-1.78.72a.48.48,0,0,0-.27.63h0l.42,1a6.09,6.09,0,0,0-1.54,1.62A.49.49,0,0,0,22,12a4.88,4.88,0,0,1,1.58-1.55.48.48,0,0,0,.19-.59l-.38-1,.87-.36.39,1a.48.48,0,0,0,.55.3,5,5,0,0,1,2.21,0A.49.49,0,0,0,28,9.51l.4-.95.87.37-.41,1a.5.5,0,0,0,.19.6,5,5,0,0,1,1.54,1.58.49.49,0,0,0,.6.19l1-.38.35.87-1,.39a.48.48,0,0,0-.29.55,5,5,0,0,1,0,2.21.5.5,0,0,0,.29.56l1,.4-.56,1.32a.48.48,0,0,0,.89.38l.75-1.76a.48.48,0,0,0-.25-.64h0l-1-.44a5.92,5.92,0,0,0,0-1.83l1-.42a.48.48,0,0,0,.27-.63Z"/><path class="cls-3" d="M37.54,6.1a.49.49,0,0,0-.66.19h0l-.07.11a.49.49,0,0,0,.81.54l.11-.18a.49.49,0,0,0-.19-.66Z"/><path class="cls-3" d="M37.91,4.91A2.36,2.36,0,1,0,35.66,8a.48.48,0,0,0,.48-.49A.47.47,0,0,0,35.66,7a1.39,1.39,0,0,1,0-2.78,1.38,1.38,0,0,1,1.32,1,.5.5,0,0,0,.62.3A.5.5,0,0,0,37.91,4.91Z"/><path class="cls-3" d="M40.8,4.44h-.73a4.32,4.32,0,0,0-.45-1.09l.51-.52a.49.49,0,0,0,0-.68h0l-1-1a.49.49,0,0,0-.69,0l-.51.51a4.73,4.73,0,0,0-1.09-.45V.49A.49.49,0,0,0,36.36,0H35a.49.49,0,0,0-.49.49h0v.72a4.73,4.73,0,0,0-1.09.45l-.52-.51a.48.48,0,0,0-.68,0l-1,1a.48.48,0,0,0,0,.68l.52.52a4.76,4.76,0,0,0-.46,1.09h-.72a.49.49,0,0,0-.49.48V6.33a.49.49,0,0,0,.49.49h.72a4.76,4.76,0,0,0,.46,1.09l-.52.51a.49.49,0,0,0,0,.69l1,1a.48.48,0,0,0,.68,0l.79-.79A.48.48,0,1,0,33,8.62h0l-.45.44-.31-.3.45-.45a.47.47,0,0,0,.05-.62,3.7,3.7,0,0,1-.6-1.45.47.47,0,0,0-.48-.4H31V5.41h.63a.48.48,0,0,0,.48-.4,3.64,3.64,0,0,1,.6-1.45.47.47,0,0,0-.05-.62l-.45-.45.31-.31.45.45a.48.48,0,0,0,.62.05A3.64,3.64,0,0,1,35,2.08a.48.48,0,0,0,.4-.48V1h.44V1.6a.48.48,0,0,0,.4.48,3.5,3.5,0,0,1,1.45.6.49.49,0,0,0,.62-.05l.45-.45.3.31-.44.45a.49.49,0,0,0-.06.62A3.51,3.51,0,0,1,39.21,5a.48.48,0,0,0,.47.4h.63v.44h-.63a.48.48,0,0,0-.47.4A3.57,3.57,0,0,1,38.6,7.7a.49.49,0,0,0,.06.62l.45.45-.31.3-.45-.44a.49.49,0,0,0-.62-.06,3.5,3.5,0,0,1-1.45.6.49.49,0,0,0-.4.48v.63H35a.49.49,0,1,0,0,1h1.4a.49.49,0,0,0,.49-.49h0V10a4.32,4.32,0,0,0,1.09-.45l.51.51a.49.49,0,0,0,.69,0l1-1a.5.5,0,0,0,0-.69h0l-.51-.51a4.32,4.32,0,0,0,.45-1.09h.73a.49.49,0,0,0,.49-.49V4.92a.49.49,0,0,0-.49-.48Z"/><path class="cls-4" d="M37.55,20.39a8.37,8.37,0,0,1,2.71.45V19a1.47,1.47,0,0,0-1.47-1.47H36A1.46,1.46,0,0,0,34.57,19v2a8.17,8.17,0,0,1,3-.55Z"/><path class="cls-4" d="M12.45,20.39a8.17,8.17,0,0,1,3,.55V19A1.46,1.46,0,0,0,14,17.51H11.21A1.47,1.47,0,0,0,9.74,19v1.86A8.37,8.37,0,0,1,12.45,20.39Z"/><path class="cls-4" d="M12.45,20.39a8.17,8.17,0,0,1,3,.55V19A1.46,1.46,0,0,0,14,17.51H11.21A1.47,1.47,0,0,0,9.74,19v1.86A8.37,8.37,0,0,1,12.45,20.39Z"/><path class="cls-5" d="M45.84,27.62h0A8.37,8.37,0,0,0,31.48,23h-13A8.37,8.37,0,0,0,4.16,27.62h0L.85,47.28a5.19,5.19,0,0,0,10,2.51l2.9-8.66a5.35,5.35,0,0,0,7-.62h8.38a5.35,5.35,0,0,0,7,.62l2.9,8.66a5.19,5.19,0,0,0,10-2.51Z"/><path class="cls-6" d="M40.26,20.84V19.08a8.37,8.37,0,0,0-5.69.1v1.76a8.17,8.17,0,0,1,3-.55A8.37,8.37,0,0,1,40.26,20.84Z"/><path class="cls-6" d="M15.43,20.94V19.18a8.37,8.37,0,0,0-5.69-.1v1.76a8.37,8.37,0,0,1,2.71-.45A8.17,8.17,0,0,1,15.43,20.94Z"/><path class="cls-7" d="M4,51.18A5.18,5.18,0,0,1,.86,47.26v0a5.19,5.19,0,0,0,10,2.51L11.47,48C10.51,50.89,6.75,52.33,4,51.18Z"/><path class="cls-7" d="M49.14,47.26A5.18,5.18,0,0,1,46,51.18c-2.78,1.15-6.54-.29-7.5-3.14l.59,1.75a5.19,5.19,0,0,0,10-2.51Z"/><path class="cls-7" d="M21,38.76a.46.46,0,0,0-.33.13A5.37,5.37,0,0,1,17,40.4a3.15,3.15,0,0,1-2-.65.49.49,0,0,0-.74.25l-.38,1.13a5.35,5.35,0,0,0,7-.62h8.38a5.35,5.35,0,0,0,7,.62L35.83,40a.49.49,0,0,0-.74-.25,3.15,3.15,0,0,1-2,.65,5.37,5.37,0,0,1-3.73-1.51.46.46,0,0,0-.33-.13"/><circle class="cls-8" cx="17.13" cy="36.86" r="2.3"/><circle class="cls-8" cx="32.87" cy="36.86" r="2.3"/><path class="cls-9" d="M17.13,37.4A2.31,2.31,0,0,1,15,36a2.34,2.34,0,0,0-.17.88,2.3,2.3,0,1,0,4.59,0,2.16,2.16,0,0,0-.18-.88,2.29,2.29,0,0,1-2.12,1.42Z"/><path class="cls-9" d="M32.87,37.4A2.29,2.29,0,0,1,30.75,36a2.16,2.16,0,0,0-.18.88,2.3,2.3,0,1,0,4.59,0A2.34,2.34,0,0,0,35,36,2.31,2.31,0,0,1,32.87,37.4Z"/><path class="cls-10" d="M15,27.39h-.9v-.9a1.56,1.56,0,0,0-3.11,0v.9h-.9a1.56,1.56,0,0,0,0,3.11H11v.9a1.56,1.56,0,0,0,3.11,0v-.9H15a1.56,1.56,0,0,0,0-3.11Z"/><path class="cls-8" d="M15,27.39h-.9v-.9a1.56,1.56,0,0,0-3.11,0v.9h-.9a1.56,1.56,0,0,0,0,3.11H11v.9a1.56,1.56,0,0,0,3.11,0v-.9H15a1.56,1.56,0,0,0,0-3.11Z"/><path class="cls-11" d="M38,23.94a1.41,1.41,0,1,0,1.4,1.41A1.41,1.41,0,0,0,38,23.94Z"/><path class="cls-10" d="M38,23.94a1.41,1.41,0,1,0,1.4,1.41A1.41,1.41,0,0,0,38,23.94Z"/><path class="cls-11" d="M38,31.14a1.41,1.41,0,1,0,1.4,1.41A1.41,1.41,0,0,0,38,31.14Z"/><path class="cls-4" d="M43,29a1.41,1.41,0,1,0-1.4,1.4A1.41,1.41,0,0,0,43,29Z"/><path class="cls-12" d="M35.8,29a1.41,1.41,0,1,0-1.4,1.4A1.41,1.41,0,0,0,35.8,29Z"/><path class="cls-13" d="M18.52,23h13v1.31a2,2,0,0,1-1.95,2H20.47a2,2,0,0,1-1.95-2Z"/><path class="cls-7" d="M29.53,24.5H20.47a2,2,0,0,1-1.9-1.5h-.05v1.3a2,2,0,0,0,1.95,2h9.06a2,2,0,0,0,1.95-2V23h-.05A2,2,0,0,1,29.53,24.5Z"/><path class="cls-3" d="M17.12,33.83a3,3,0,1,0,3,3,3,3,0,0,0-3-3Zm0,4.6a1.57,1.57,0,1,1,1.56-1.56A1.56,1.56,0,0,1,17.12,38.43Z"/><path class="cls-3" d="M29.85,36.86a3,3,0,1,0,3-3A3,3,0,0,0,29.85,36.86Zm3-1.56a1.57,1.57,0,1,1-1.56,1.56A1.56,1.56,0,0,1,32.88,35.3Z"/><path class="cls-3" d="M49.92,47.19l-3.31-19.7v0A9.12,9.12,0,0,0,41,20.31V19a2.2,2.2,0,0,0-2.2-2.2H36.05a2.2,2.2,0,0,0-2.2,2.2v1.47a8.9,8.9,0,0,0-2.66,1.83H18.81a8.9,8.9,0,0,0-2.66-1.83V19a2.2,2.2,0,0,0-2.2-2.2H11.18A2.2,2.2,0,0,0,9,19v1.36A9.14,9.14,0,0,0,3.4,27.45v0L2.33,33.83a.73.73,0,1,0,1.44.24l1.06-6.28a.22.22,0,0,0,0-.08,7.68,7.68,0,0,1,7.58-6.61,7.58,7.58,0,0,1,5.35,2.18v1A2.7,2.7,0,0,0,20.46,27h3.07a.74.74,0,1,0,0-1.47H20.46a1.22,1.22,0,0,1-1.22-1.22v-.58H30.76v.58a1.22,1.22,0,0,1-1.22,1.22H26.47a.74.74,0,1,0,0,1.47h3.07a2.7,2.7,0,0,0,2.69-2.69v-1a7.57,7.57,0,0,1,5.35-2.18,7.68,7.68,0,0,1,7.58,6.61.22.22,0,0,0,0,.08l3.3,19.64a4.46,4.46,0,0,1-8.63,2.16l-.68-2a.73.73,0,0,0-.93-.46.73.73,0,0,0-.46.93l.68,2a6,6,0,0,0,3.16,3.51,6,6,0,0,0,2.46.53,5.93,5.93,0,0,0,5.85-6.91ZM10.45,19.85V19a.74.74,0,0,1,.73-.74H14a.74.74,0,0,1,.73.74v1a8.91,8.91,0,0,0-2.26-.28,9.22,9.22,0,0,0-2,.22Zm24.87.06V19a.74.74,0,0,1,.73-.74h2.77a.74.74,0,0,1,.73.74v.9a9.22,9.22,0,0,0-2-.22A8.91,8.91,0,0,0,35.32,19.91Z"/><path class="cls-3" d="M38.23,44.79l-1.31-3.88a.72.72,0,0,0-.47-.46.71.71,0,0,0-.66.1A4.62,4.62,0,0,1,29.73,40a.72.72,0,0,0-.53-.23H20.8a.72.72,0,0,0-.53.23,4.62,4.62,0,0,1-6.06.53.71.71,0,0,0-.66-.1.72.72,0,0,0-.47.46l-2.92,8.68a4.46,4.46,0,0,1-5.94,2.7,4.44,4.44,0,0,1-2.69-4.86L3.29,37a.73.73,0,0,0-1.45-.24L.08,47.19A5.93,5.93,0,0,0,5.93,54.1a6,6,0,0,0,2.46-.53,6,6,0,0,0,3.16-3.51l2.63-7.81a6.08,6.08,0,0,0,6.92-1h7.8a6.08,6.08,0,0,0,6.92,1l1,3a.72.72,0,0,0,.92.46A.73.73,0,0,0,38.23,44.79Z"/><path class="cls-3" d="M12.48,24.19a2.3,2.3,0,0,0-2.29,2.29v.17H10a2.29,2.29,0,1,0,0,4.58h.17v.16a2.29,2.29,0,0,0,4.58,0v-.16h.17a2.29,2.29,0,0,0,0-4.58h-.17v-.17A2.3,2.3,0,0,0,12.48,24.19Zm2.46,3.92a.83.83,0,0,1,0,1.65H14a.74.74,0,0,0-.74.73v.9a.82.82,0,1,1-1.64,0v-.9a.74.74,0,0,0-.74-.73H10a.83.83,0,0,1,0-1.65h.9a.74.74,0,0,0,.74-.73v-.9a.82.82,0,0,1,1.64,0v.9a.74.74,0,0,0,.74.73Z"/><path class="cls-3" d="M38,23.19a2.14,2.14,0,1,0,2.15,2.14A2.14,2.14,0,0,0,38,23.19ZM38,26a.68.68,0,0,1,0-1.36A.68.68,0,0,1,38,26Z"/><path class="cls-3" d="M38,30.4a2.15,2.15,0,1,0,2.15,2.14A2.14,2.14,0,0,0,38,30.4Zm0,2.82a.68.68,0,1,1,.68-.68A.68.68,0,0,1,38,33.22Z"/><path class="cls-3" d="M43.77,28.94a2.14,2.14,0,1,0-2.14,2.14A2.14,2.14,0,0,0,43.77,28.94Zm-2.82,0a.68.68,0,0,1,.68-.68.68.68,0,1,1-.68.68Z"/><path class="cls-3" d="M32.27,28.94a2.15,2.15,0,1,0,2.15-2.15A2.14,2.14,0,0,0,32.27,28.94Zm2.82,0a.68.68,0,1,1-.67-.68A.67.67,0,0,1,35.09,28.94Z"/><path class="cls-3" d="M22.83,31.78a.74.74,0,1,0,0-1.47H20.64a.74.74,0,1,0,0,1.47Z"/><path class="cls-3" d="M29.36,30.31H27.17a.74.74,0,1,0,0,1.47h2.19a.74.74,0,1,0,0-1.47Z"/></svg>