<svg id="Layer_1" data-name="Layer 1" xmlns="http://www.w3.org/2000/svg" width="50" height="60.66" viewBox="0 0 50 60.66"><defs><style>.cls-1{fill:#606b7a;}.cls-2{fill:#c4c3c3;}.cls-3{fill:#c0702a;}</style></defs><title>icons.0</title><path class="cls-1" d="M41.53,36.29a4.29,4.29,0,0,1-1.23-2.6s0,.18-.35-2.9A13.15,13.15,0,0,0,34.41,5.08,14.08,14.08,0,0,0,14,3.81a14.55,14.55,0,0,0-4.62,9.26C6.74,34.63,6.86,33.66,6.85,33.69a4.28,4.28,0,0,1-1.22,2.6L2.29,39.63A7.72,7.72,0,0,0,0,45.15,7.81,7.81,0,0,0,7.81,53h6.58a9.33,9.33,0,0,0,18.38,0h6.58a7.81,7.81,0,0,0,5.52-13.33ZM46.45,18a9.6,9.6,0,1,1-9.6-9.6A9.61,9.61,0,0,1,46.45,18ZM23.58,57.11A5.83,5.83,0,0,1,18,53H29.12a5.84,5.84,0,0,1-5.54,4.15ZM39.35,49.4H7.81a4.25,4.25,0,0,1-3-7.26L8.14,38.8a7.83,7.83,0,0,0,2.25-4.74C13,12.61,12.87,13.47,12.87,13.44A10.94,10.94,0,0,1,23.58,3.55a10.68,10.68,0,0,1,7.14,2.82,13.15,13.15,0,0,0,5.7,24.78l.35,2.91A7.77,7.77,0,0,0,39,38.8l3.34,3.34a4.26,4.26,0,0,1-3,7.26Z"/><path class="cls-2" d="M46.41,18.13a9.6,9.6,0,1,1-9.6-9.6A9.62,9.62,0,0,1,46.41,18.13ZM23.54,57.23A5.83,5.83,0,0,1,18,53.08H29.08a5.84,5.84,0,0,1-5.54,4.15Zm15.77-7.7H7.77a4.26,4.26,0,0,1-3-7.27L8.1,38.92a7.83,7.83,0,0,0,2.25-4.74c2.58-21.45,2.48-20.58,2.48-20.62A10.94,10.94,0,0,1,23.54,3.67a10.68,10.68,0,0,1,7.14,2.82,13.15,13.15,0,0,0,5.7,24.78l.35,2.91A7.77,7.77,0,0,0,39,38.92l3.34,3.34a4.26,4.26,0,0,1-3,7.27Z"/><path class="cls-3" d="M42.81,16.29l1.5-.61-.76-1.89-1.5.6a6,6,0,0,0-1.81-1.85l.63-1.49L39,10.25l-.64,1.49a5.81,5.81,0,0,0-2.59,0l-.6-1.51-1.9.76.61,1.51A6,6,0,0,0,32,14.29l-1.49-.64-.8,1.88,1.49.64a5.91,5.91,0,0,0,0,2.58l-1.5.61.76,1.89,1.51-.6a5.81,5.81,0,0,0,1.81,1.85L33.14,24l1.88.8.63-1.5a6,6,0,0,0,2.59,0l.6,1.51,1.9-.77-.6-1.5A5.89,5.89,0,0,0,42,20.75l1.49.64.81-1.88-1.5-.64a5.91,5.91,0,0,0,0-2.58Zm-4.46,4.57a3.6,3.6,0,1,1,2-4.68,3.6,3.6,0,0,1-2,4.68Z"/></svg>