<svg id="Layer_1" data-name="Layer 1" xmlns="http://www.w3.org/2000/svg" width="50" height="70.45" viewBox="0 0 50 70.45"><defs><style>.cls-1{fill:#d09f76;}.cls-2{fill:#b6d881;}.cls-3{fill:#666e79;}.cls-4{fill:#b27a47;}.cls-5{fill:#ffc82b;}.cls-6{fill:#fcd770;}.cls-7{fill:#e7e9ed;}.cls-8{fill:#71cfed;}.cls-9{fill:#f48270;}.cls-10{fill:#f0d0b4;}.cls-11{fill:#606b7a;}.cls-12{fill:#f9d011;}.cls-13{fill:#c0702a;}</style></defs><title>icons.0</title><path class="cls-1" d="M.81,51.9H49.19V66.42H.81Z"/><path class="cls-2" d="M25,51.9H21.77V48.68a1.61,1.61,0,0,0-1.61-1.61H15.32a1.62,1.62,0,0,0-1.61,1.61V51.9H10.48v4.84H7.26A3.23,3.23,0,0,1,4,53.52V48.9a6.4,6.4,0,0,1,5.12-6.25l6.17-1.23A2.44,2.44,0,0,0,16,43.13a2.42,2.42,0,0,0,4.13-1.71l6.18,1.23a6.44,6.44,0,0,1,3.25,1.75,6.36,6.36,0,0,1,1.86,4.5v4.62a3.21,3.21,0,0,1-3.22,3.22H25Z"/><path class="cls-3" d="M26.61,26.1v.68A15.88,15.88,0,0,1,26,31a2.38,2.38,0,0,0-1.85-.86h-.8V28.52h-.32a9.63,9.63,0,0,1-5.33-1.62,9.63,9.63,0,0,1-5.33,1.62H12.1v1.61h-.81a2.43,2.43,0,0,0-1.68.68l-.08-.16a6.34,6.34,0,0,1-.66-2.81,6.27,6.27,0,0,1,.74-3,6.43,6.43,0,0,1,2.05-2.26,8.21,8.21,0,0,1,4.51-1.36h2.47a16.27,16.27,0,0,1,6.05,1.16l1.12.45-1.62,2.42Z"/><path class="cls-4" d="M.81,66.42H49.19v3.23H.81Z"/><path class="cls-5" d="M44.35,60A1.62,1.62,0,0,1,46,61.58a1.62,1.62,0,0,1-1.62,1.61H37.9a1.61,1.61,0,0,1-1.13-2.75A1.6,1.6,0,0,1,37.9,60Z"/><path class="cls-5" d="M44.35,53.52A1.62,1.62,0,0,1,46,55.13a1.59,1.59,0,0,1-.48,1.14,1.56,1.56,0,0,1-1.14.47H37.9a1.62,1.62,0,0,1-1.61-1.61A1.59,1.59,0,0,1,36.77,54a1.55,1.55,0,0,1,1.13-.47Z"/><path class="cls-6" d="M44.35,56.74A1.63,1.63,0,0,1,46,58.36,1.64,1.64,0,0,1,44.35,60H37.9a1.62,1.62,0,0,1-1.61-1.61,1.64,1.64,0,0,1,1.61-1.62Z"/><path class="cls-6" d="M44.35,50.29A1.62,1.62,0,0,1,46,51.9a1.64,1.64,0,0,1-1.62,1.62H37.9a1.62,1.62,0,0,1-1.61-1.62,1.64,1.64,0,0,1,1.61-1.61Z"/><path class="cls-7" d="M35,35.5l-2.28,2.28a9.64,9.64,0,0,1-2.83-6.84h3.22A6.47,6.47,0,0,0,35,35.5Z"/><path class="cls-7" d="M39.52,21.26v3.23A6.46,6.46,0,0,0,35,26.37l-2.28-2.28A9.65,9.65,0,0,1,39.52,21.26Z"/><path class="cls-7" d="M49.19,30.94H46a6.47,6.47,0,0,0-1.89-4.57l2.28-2.28a9.65,9.65,0,0,1,2.83,6.85Z"/><path class="cls-7" d="M44.08,35.5l2.28,2.28a9.64,9.64,0,0,1-6.84,2.83V37.39A6.47,6.47,0,0,0,44.08,35.5Z"/><path class="cls-8" d="M32.67,24.09,35,26.37a6.47,6.47,0,0,0-1.89,4.57H29.84a9.65,9.65,0,0,1,2.83-6.85Z"/><path class="cls-8" d="M46,30.94h3.22a9.64,9.64,0,0,1-2.83,6.84L44.08,35.5A6.47,6.47,0,0,0,46,30.94Z"/><path class="cls-8" d="M46.36,24.09l-2.28,2.28a6.46,6.46,0,0,0-4.56-1.88V21.26a9.64,9.64,0,0,1,6.84,2.83Z"/><path class="cls-6" d="M44.08,26.37a6.48,6.48,0,1,1-4.56-1.88A6.47,6.47,0,0,1,44.08,26.37Z"/><path class="cls-9" d="M39.52,27.71l2.42,3.23-2.42,3.22L37.1,30.94Z"/><path class="cls-8" d="M39.52,37.39v3.22a9.65,9.65,0,0,1-6.85-2.83L35,35.5a6.47,6.47,0,0,0,4.57,1.89Z"/><path class="cls-10" d="M26,31a2.35,2.35,0,0,1,.57,1.56A2.42,2.42,0,0,1,24.19,35h-.87a4.28,4.28,0,0,0,.07-.81v-4h.8A2.38,2.38,0,0,1,26,31Z"/><path class="cls-10" d="M21.77,51.9H25v4.84H21.77Z"/><path class="cls-10" d="M12.1,30.13V28.52h.31a9.63,9.63,0,0,0,5.33-1.62,9.63,9.63,0,0,0,5.33,1.62h.32v5.64a4.28,4.28,0,0,1-.07.81,5.63,5.63,0,0,1-8,4.29,5.27,5.27,0,0,1-1.57-1.11A5.5,5.5,0,0,1,12.16,35a4.29,4.29,0,0,1-.06-.81Z"/><path class="cls-7" d="M21.77,51.9v4.84H16.13a2.42,2.42,0,0,0,2.42-2.42,2.42,2.42,0,0,0-2.42-2.42H13.71V48.68a1.62,1.62,0,0,1,1.61-1.61h4.84a1.61,1.61,0,0,1,1.61,1.61Z"/><path class="cls-10" d="M20.16,39.26v2.16A2.42,2.42,0,0,1,16,43.13a2.44,2.44,0,0,1-.71-1.71V39.26a5.6,5.6,0,0,0,4.84,0Z"/><path class="cls-10" d="M17.84,52.61a2.44,2.44,0,0,1,.71,1.71,2.42,2.42,0,0,1-2.42,2.42H10.48V51.9h5.65a2.44,2.44,0,0,1,1.71.71Z"/><path class="cls-10" d="M12.16,35h-.87a2.42,2.42,0,0,1-2.42-2.42,2.37,2.37,0,0,1,.74-1.74,2.43,2.43,0,0,1,1.68-.68h.81v4A4.29,4.29,0,0,0,12.16,35Z"/><circle class="cls-11" cx="15.32" cy="31.74" r="0.81"/><circle class="cls-11" cx="20.16" cy="31.74" r="0.81"/><path class="cls-11" d="M20.8,35.5l.08-.17-1.44-.72-.09.17a1.8,1.8,0,0,1-3.22,0L16,34.61l-1.44.72.09.17a3.41,3.41,0,0,0,6.11,0Z"/><path class="cls-11" d="M39.52,41.42A10.49,10.49,0,1,0,29,30.94,10.49,10.49,0,0,0,39.52,41.42Zm0-16.13a5.65,5.65,0,1,1-5.65,5.65A5.65,5.65,0,0,1,39.52,25.29ZM35,36.6a7.24,7.24,0,0,0,3.72,1.55v1.62a8.9,8.9,0,0,1-4.87-2Zm5.33,1.55A7.21,7.21,0,0,0,44,36.6l1.15,1.15a8.9,8.9,0,0,1-4.87,2Zm4.86-2.69a7.21,7.21,0,0,0,1.55-3.72h1.62a8.9,8.9,0,0,1-2,4.87Zm1.55-5.33a7.24,7.24,0,0,0-1.55-3.72l1.15-1.15a8.9,8.9,0,0,1,2,4.87ZM44,25.27a7.2,7.2,0,0,0-3.72-1.54V22.11a8.81,8.81,0,0,1,4.87,2Zm-5.33-1.54A7.23,7.23,0,0,0,35,25.27l-1.15-1.15a8.81,8.81,0,0,1,4.87-2Zm-4.86,2.68a7.23,7.23,0,0,0-1.54,3.72H30.69a8.81,8.81,0,0,1,2-4.87Zm-1.54,5.33a7.2,7.2,0,0,0,1.54,3.72L32.7,36.61a8.78,8.78,0,0,1-2-4.87Z"/><path class="cls-11" d="M42.94,30.94l-3.42-4.57-3.43,4.57,3.43,4.57Zm-3.42-1.88,1.41,1.88-1.41,1.88L38.1,30.94Z"/><path class="cls-11" d="M44.35,49.49H37.9a2.41,2.41,0,0,0-2.27,1.61H32.26V48.89a7.16,7.16,0,0,0-5.77-7L21,40.76v-1a6.46,6.46,0,0,0,3-4h.21a3.23,3.23,0,0,0,3.23-3.23,3.19,3.19,0,0,0-.51-1.73,16.71,16.71,0,0,0,.51-4.05V25.52l-2-.66L27,22.49l-2-.82a17.07,17.07,0,0,0-6.35-1.22H16.17a8.89,8.89,0,0,0-5,1.5,7,7,0,0,0-2.55,8.73,3.19,3.19,0,0,0-.61,1.87,3.23,3.23,0,0,0,3.23,3.23h.21a6.44,6.44,0,0,0,3,4v1L9,41.87a7.15,7.15,0,0,0-5.76,7V51.1H0V70.45H50V51.1H46.63A2.43,2.43,0,0,0,44.35,49.49Zm.81,12.09a.81.81,0,0,1-.81.81H37.9a.81.81,0,0,1,0-1.61h6.45A.8.8,0,0,1,45.16,61.58Zm0-6.45a.81.81,0,0,1-.81.81H37.9a.81.81,0,0,1,0-1.62h6.45A.81.81,0,0,1,45.16,55.13Zm0,3.23a.8.8,0,0,1-.81.8H37.9a.81.81,0,0,1,0-1.61h6.45A.81.81,0,0,1,45.16,58.36ZM37.9,51.1h6.45a.81.81,0,1,1,0,1.61H37.9a.81.81,0,0,1,0-1.61ZM24.19,34.16V30.94a1.61,1.61,0,1,1,0,3.22ZM9.68,32.55a1.61,1.61,0,0,1,1.61-1.61v3.22A1.61,1.61,0,0,1,9.68,32.55Zm1.61-4.84v1.61a3.18,3.18,0,0,0-1.31.29,5.35,5.35,0,0,1-.3-1.77,5.47,5.47,0,0,1,2.43-4.55,7.33,7.33,0,0,1,4.06-1.22h2.47a15.51,15.51,0,0,1,5.75,1.1l.19.08-1.64,2.47,2.87,1v.09a15.13,15.13,0,0,1-.28,2.85,3.17,3.17,0,0,0-1.34-.3V27.71H23.07a8.75,8.75,0,0,1-4.88-1.48l-.45-.29-.45.29a8.72,8.72,0,0,1-4.87,1.48Zm1.61,6.45V29.31a10.31,10.31,0,0,0,4.84-1.45,10.34,10.34,0,0,0,4.84,1.45v4.85a4.84,4.84,0,0,1-9.68,0Zm4.84,6.45a6.07,6.07,0,0,0,1.61-.21v1a1.61,1.61,0,1,1-3.22,0v-1A6.13,6.13,0,0,0,17.74,40.61ZM4.84,48.89A5.51,5.51,0,0,1,6.47,45a5.45,5.45,0,0,1,2.84-1.52l5.37-1.08a3.2,3.2,0,0,0,6.13,0l5.37,1.08a5.56,5.56,0,0,1,4.47,5.44v4.63a2.43,2.43,0,0,1-2.42,2.42H25.81V52.71a1.61,1.61,0,0,0,1.61-1.61V47.87H25.81V51.1H22.58V48.68a2.42,2.42,0,0,0-2.42-2.42H15.32a2.42,2.42,0,0,0-2.42,2.42V51.1H9.68V47.87H8.06V51.1a1.62,1.62,0,0,0,1.62,1.61v3.23H7.26a2.42,2.42,0,0,1-2.42-2.42Zm11.29,3.82a1.62,1.62,0,0,1,0,3.23H11.29V52.71Zm0-1.61H14.52V48.68a.8.8,0,0,1,.8-.81h4.84a.81.81,0,0,1,.81.81v7.26H18.91a3.3,3.3,0,0,0,.44-1.62A3.22,3.22,0,0,0,16.13,51.1Zm6.45,1.61h1.61v3.23H22.58Zm-21,16.13V67.23H48.39v1.61Zm46.78-3.23H1.61V52.71H3.23v.81a4,4,0,0,0,4,4h21a4,4,0,0,0,4-4v-.81h3.37a2.56,2.56,0,0,0,.48.81,2.37,2.37,0,0,0,0,3.22,2.39,2.39,0,0,0,0,3.23,2.41,2.41,0,0,0,1.79,4h6.45a2.41,2.41,0,0,0,1.8-4,2.41,2.41,0,0,0,0-3.23,2.4,2.4,0,0,0,0-3.22,2.76,2.76,0,0,0,.48-.81h1.76Z"/><path class="cls-12" d="M36.16,13.58l1.4-.57-.71-1.78-1.41.57a5.4,5.4,0,0,0-1.7-1.73l.6-1.4-1.76-.75L32,9.32a5.49,5.49,0,0,0-2.42,0L29,7.88l-1.77.72L27.78,10a5.69,5.69,0,0,0-1.73,1.69l-1.4-.59-.75,1.76,1.4.59a5.54,5.54,0,0,0,0,2.43l-1.41.56.71,1.78L26,17.66a5.4,5.4,0,0,0,1.7,1.73l-.6,1.4,1.76.75.6-1.4a5.49,5.49,0,0,0,2.42,0l.57,1.41,1.77-.71-.56-1.41a5.61,5.61,0,0,0,1.73-1.7l1.4.6.75-1.77L36.13,16a5.49,5.49,0,0,0,0-2.42ZM32,17.86a3.37,3.37,0,1,1,1.87-4.38A3.37,3.37,0,0,1,32,17.86Z"/><path class="cls-13" d="M45.27,6.33V4.92H44.16a4.11,4.11,0,0,0-.69-1.64l.79-.79-1-1-.79.79a4.07,4.07,0,0,0-1.65-.68V.49h-1.4V1.6a4.13,4.13,0,0,0-1.65.68L37,1.49l-1,1,.79.79a4,4,0,0,0-.68,1.64H35V6.33h1.12A4,4,0,0,0,36.79,8L36,8.77l1,1L37.78,9a4,4,0,0,0,1.65.68v1.12h1.41V9.65A4,4,0,0,0,42.48,9l.79.79,1-1L43.47,8a4.21,4.21,0,0,0,.69-1.65ZM40.13,7.5A1.88,1.88,0,1,1,42,5.63,1.87,1.87,0,0,1,40.13,7.5Z"/><path class="cls-11" d="M29.64,12.05a.47.47,0,0,0,.25-.63.49.49,0,0,0-.61-.27,3.85,3.85,0,1,0,5,2.14,3.8,3.8,0,0,0-.78-1.22.49.49,0,0,0-.69,0,.5.5,0,0,0,0,.68,2.89,2.89,0,1,1-4.08-.09,2.92,2.92,0,0,1,.92-.6Z"/><path class="cls-11" d="M31.46,11.94a.48.48,0,1,0,.25-.93h0l-.27-.07a.5.5,0,0,0-.56.4.49.49,0,0,0,.38.56Z"/><path class="cls-11" d="M35.64,17.35a.49.49,0,0,0-.67.15h0A5,5,0,0,1,33.39,19a.49.49,0,0,0-.19.6l.38,1-.87.35-.39-1a.48.48,0,0,0-.55-.29,5.15,5.15,0,0,1-2.21,0A.5.5,0,0,0,29,20l-.4,1-.87-.37.4-.95A.48.48,0,0,0,28,19a5.19,5.19,0,0,1-1.55-1.58.49.49,0,0,0-.59-.2l-1,.39-.35-.88,1-.38a.49.49,0,0,0,.29-.56,5,5,0,0,1,0-2.21.46.46,0,0,0-.28-.55l-.95-.41.56-1.31a.49.49,0,0,0-.25-.64.48.48,0,0,0-.64.26h0l-.75,1.76a.48.48,0,0,0,.25.63h0l1,.45a5.85,5.85,0,0,0,0,1.82l-1,.42a.49.49,0,0,0-.27.64l.71,1.77a.48.48,0,0,0,.63.27l1-.42a5.68,5.68,0,0,0,1.28,1.31l-.45,1a.49.49,0,0,0,.26.64h0l1.76.75a.49.49,0,0,0,.64-.25h0l.44-1a5.91,5.91,0,0,0,1.83,0l.42,1a.48.48,0,0,0,.63.27l1.78-.71a.49.49,0,0,0,.27-.63l-.42-1.05A5.94,5.94,0,0,0,35.79,18a.49.49,0,0,0-.15-.67Z"/><path class="cls-11" d="M38,12.83l-.72-1.78a.48.48,0,0,0-.63-.27l-1,.42a5.85,5.85,0,0,0-1.28-1.3l.44-1a.49.49,0,0,0-.26-.64h0l-1.76-.75a.49.49,0,0,0-.64.26h0l-.44,1a6.23,6.23,0,0,0-1.83,0l-.41-1a.5.5,0,0,0-.64-.27L27,8.15a.48.48,0,0,0-.27.63h0l.42,1a5.94,5.94,0,0,0-1.54,1.62.47.47,0,0,0,.14.67.49.49,0,0,0,.67-.14A5,5,0,0,1,28,10.42a.48.48,0,0,0,.19-.59l-.38-1,.87-.36.39,1a.49.49,0,0,0,.55.3,5,5,0,0,1,2.21,0,.49.49,0,0,0,.56-.28l.41-.95.86.37-.4,1a.49.49,0,0,0,.18.6A4.88,4.88,0,0,1,35,12.06a.48.48,0,0,0,.59.19l1-.38.35.87-1,.39a.48.48,0,0,0-.29.55,5,5,0,0,1,0,2.21.48.48,0,0,0,.28.56l1,.4-.56,1.32a.49.49,0,0,0,.27.63.47.47,0,0,0,.62-.25L38,16.79a.48.48,0,0,0-.25-.64h0l-1-.44a5.92,5.92,0,0,0,0-1.83l1-.42a.5.5,0,0,0,.27-.63Z"/><path class="cls-11" d="M42,6.1a.49.49,0,0,0-.66.19h0a.41.41,0,0,1-.07.11.49.49,0,0,0,.81.54,1.74,1.74,0,0,0,.11-.18A.49.49,0,0,0,42,6.1Z"/><path class="cls-11" d="M42.38,4.91A2.36,2.36,0,1,0,40.13,8a.49.49,0,0,0,.49-.49A.48.48,0,0,0,40.13,7a1.39,1.39,0,0,1,0-2.78,1.37,1.37,0,0,1,1.32,1,.5.5,0,0,0,.62.3A.49.49,0,0,0,42.38,4.91Z"/><path class="cls-11" d="M45.27,4.44h-.72a4.76,4.76,0,0,0-.46-1.09l.52-.52a.48.48,0,0,0,0-.68h0l-1-1a.48.48,0,0,0-.68,0l-.52.51a4.73,4.73,0,0,0-1.09-.45V.49A.49.49,0,0,0,40.84,0H39.43a.49.49,0,0,0-.49.49h0v.72a4.73,4.73,0,0,0-1.09.45l-.51-.51a.49.49,0,0,0-.69,0l-1,1a.5.5,0,0,0,0,.68l.52.52a4.32,4.32,0,0,0-.45,1.09H35a.49.49,0,0,0-.49.48V6.33a.49.49,0,0,0,.49.49h.73a4.32,4.32,0,0,0,.45,1.09l-.51.51a.49.49,0,0,0,0,.69l1,1a.49.49,0,0,0,.69,0l.79-.79a.48.48,0,1,0-.68-.69h0L37,9.07l-.3-.3.44-.45a.49.49,0,0,0,.06-.62,3.55,3.55,0,0,1-.6-1.45.47.47,0,0,0-.48-.4h-.63V5.41h.63a.48.48,0,0,0,.47-.4,3.64,3.64,0,0,1,.6-1.45.47.47,0,0,0,0-.62l-.44-.45.3-.31.45.45a.49.49,0,0,0,.62.05,3.64,3.64,0,0,1,1.45-.6.48.48,0,0,0,.4-.48V1h.44V1.6a.48.48,0,0,0,.4.48,3.5,3.5,0,0,1,1.45.6.48.48,0,0,0,.62-.05l.45-.45.31.31-.45.45a.47.47,0,0,0-.05.62A3.64,3.64,0,0,1,43.68,5a.48.48,0,0,0,.48.4h.63v.44h-.63a.48.48,0,0,0-.48.4,3.7,3.7,0,0,1-.6,1.45.49.49,0,0,0,.05.62l.45.45-.31.3-.45-.44a.48.48,0,0,0-.62-.06,3.5,3.5,0,0,1-1.45.6.49.49,0,0,0-.4.48v.63h-.92a.49.49,0,0,0,0,1h1.4a.49.49,0,0,0,.49-.49h0V10a4.32,4.32,0,0,0,1.09-.45l.52.51a.48.48,0,0,0,.68,0l1-1a.49.49,0,0,0,0-.69h0l-.52-.51a4.76,4.76,0,0,0,.46-1.09h.72a.49.49,0,0,0,.49-.49V4.92a.49.49,0,0,0-.49-.48Z"/></svg>