<svg id="Layer_1" data-name="Layer 1" xmlns="http://www.w3.org/2000/svg" width="50" height="34.49" viewBox="0 0 50 34.49"><defs><style>.cls-1{fill:#2cbec5;}.cls-2{fill:#495e85;}.cls-3{fill:#e9edef;}.cls-4{fill:#b5e3f2;}.cls-5{fill:#606b7a;}.cls-6{fill:#f9d011;}.cls-7{fill:#c0702a;}</style></defs><title>icons.0</title><path class="cls-1" d="M22.57,15l4.27,7.4-6.17,3.55a4.27,4.27,0,1,1-4.27-7.39Z"/><path class="cls-1" d="M42.7,17.35a1.43,1.43,0,0,1-1.2,2.14l-.8.16,0-.09L31.52,3.69l-.06,0L32,3a1.42,1.42,0,0,1,2.45,0Z"/><path class="cls-2" d="M28.29,30.57a2.14,2.14,0,1,1-3.7,2.14l-3.92-6.79,3.7-2.13Z"/><path class="cls-3" d="M40.45,7.75l1.42,2.47-1.75,2.66L37.27,7.94Z"/><path class="cls-4" d="M40.68,19.56l0,.09L26.84,22.37,22.57,15,31.46,3.64l.06,0Z"/><path class="cls-5" d="M23.31,21.94a.71.71,0,1,0-1-.26A.72.72,0,0,0,23.31,21.94Z"/><path class="cls-5" d="M20.39,26.85,24,33.06a2.85,2.85,0,1,0,4.93-2.85l-2.13-3.69,1.85-1.07a.71.71,0,0,0,.26-1L28,22.87,41.59,20.2A2.14,2.14,0,0,0,43.32,17L41,12.9l1.51-2.29a.72.72,0,0,0,0-.75L41.06,7.4A.71.71,0,0,0,40.4,7l-2.73.17L35,2.66a2.11,2.11,0,0,0-1.82-1.07h0a2.12,2.12,0,0,0-1.8,1l-9.3,11.84-6,3.49a5,5,0,0,0,4.34,8.94Zm7.28,4.08a1.42,1.42,0,1,1-2.46,1.42l-3.56-6.17,2.46-1.42C28.23,31.9,27.61,30.81,27.67,30.93Zm-1.61-5.65-.71-1.23,1.23-.71.71,1.23Zm14-16.79,1,1.7-.87,1.33-1.7-2.93ZM32.58,3.36A.71.71,0,0,1,33.2,3a.73.73,0,0,1,.61.36l8.27,14.34a.71.71,0,0,1-.59,1.07,2.63,2.63,0,0,0-.39.06L32.34,3.68A3.59,3.59,0,0,0,32.58,3.36ZM31.39,4.88l8.23,14.25L27.2,21.57,23.43,15ZM15.46,24A3.52,3.52,0,0,1,15,22.23a3.58,3.58,0,0,1,1.78-3.09l5.55-3.2,3.56,6.16-5.55,3.21A3.57,3.57,0,0,1,15.46,24Z"/><path class="cls-5" d="M21.1,22.39a.71.71,0,0,0-1-.26l-1.23.71a.72.72,0,0,1-1-.26.71.71,0,0,0-1.23.71,2.13,2.13,0,0,0,2.92.78l1.23-.71A.7.7,0,0,0,21.1,22.39Z"/><path class="cls-5" d="M48.94,3.11,45,5.32a.71.71,0,1,0,.69,1.24l4-2.2a.71.71,0,1,0-.69-1.25Z"/><path class="cls-5" d="M48.53,10.49l-2.75-.74a.72.72,0,0,0-.88.5.71.71,0,0,0,.51.87l2.75.74a.72.72,0,0,0,.87-.5A.71.71,0,0,0,48.53,10.49Z"/><path class="cls-5" d="M41.62.53l-.74,2.75a.71.71,0,1,0,1.37.37L43,.9a.72.72,0,0,0-.5-.88A.71.71,0,0,0,41.62.53Z"/><path class="cls-6" d="M13.11,16.4l1.44-.58L13.82,14l-1.45.58a5.58,5.58,0,0,0-1.74-1.78l.61-1.43-1.8-.77L8.83,12a5.66,5.66,0,0,0-2.49,0l-.58-1.45-1.82.73.58,1.45a5.58,5.58,0,0,0-1.78,1.74l-1.43-.61-.77,1.8L2,16.28a5.66,5.66,0,0,0,0,2.49L.5,19.35l.73,1.83,1.45-.59a5.58,5.58,0,0,0,1.74,1.78L3.81,23.8l1.8.77.61-1.43a5.81,5.81,0,0,0,2.49,0l.58,1.44,1.82-.73-.58-1.45a5.58,5.58,0,0,0,1.78-1.74l1.43.61.77-1.8-1.43-.61a5.81,5.81,0,0,0,0-2.49ZM8.82,20.8a3.46,3.46,0,1,1,1.91-4.5,3.46,3.46,0,0,1-1.91,4.5Z"/><path class="cls-7" d="M22.46,9V7.52H21.31a4.13,4.13,0,0,0-.69-1.68L21.43,5l-1-1-.81.81a4,4,0,0,0-1.68-.7V3H16.46V4.12a4,4,0,0,0-1.68.7L14,4,13,5l.81.81a4,4,0,0,0-.7,1.68H11.91V9h1.14a4.4,4.4,0,0,0,.7,1.69l-.81.81,1,1,.81-.81a4.3,4.3,0,0,0,1.68.7v1.14h1.45V12.38a4.4,4.4,0,0,0,1.69-.7l.81.81,1-1-.82-.81A4.11,4.11,0,0,0,21.31,9Zm-5.28,1.2a1.93,1.93,0,1,1,1.93-1.92A1.92,1.92,0,0,1,17.18,10.17Z"/><path class="cls-5" d="M6.42,14.84a.5.5,0,0,0,.26-.66.49.49,0,0,0-.63-.26,3.93,3.93,0,1,0,4.34.93.5.5,0,0,0-.71,0,.49.49,0,0,0,0,.69,3,3,0,1,1-3.25-.7Z"/><path class="cls-5" d="M8.29,14.73a.5.5,0,0,0,.61-.35.52.52,0,0,0-.35-.62h0l-.28-.06a.5.5,0,0,0-.19,1Z"/><path class="cls-5" d="M12.58,20.28a.5.5,0,0,0-.69.14h0A5,5,0,0,1,10.27,22a.49.49,0,0,0-.2.61l.4,1-.9.36-.4-1a.5.5,0,0,0-.56-.3,5.27,5.27,0,0,1-2.27,0,.48.48,0,0,0-.57.28l-.42,1-.89-.38.42-1A.51.51,0,0,0,4.69,22,5.12,5.12,0,0,1,3.1,20.33a.51.51,0,0,0-.61-.2l-1,.4-.36-.9,1-.4a.49.49,0,0,0,.3-.56,5.11,5.11,0,0,1,0-2.27.5.5,0,0,0-.29-.57l-1-.42.58-1.35a.5.5,0,0,0-.92-.39h0L.08,15.48a.5.5,0,0,0,.26.65h0l1.06.46a6.17,6.17,0,0,0,0,1.87l-1.07.43a.49.49,0,0,0-.27.65l.73,1.82a.5.5,0,0,0,.65.28l1.07-.43A6.16,6.16,0,0,0,3.8,22.55l-.45,1.06a.5.5,0,0,0,.26.65h0L5.42,25a.5.5,0,0,0,.65-.26h0l.45-1.06a6.24,6.24,0,0,0,1.88,0l.43,1.07a.49.49,0,0,0,.65.27l1.82-.73a.5.5,0,0,0,.28-.65l-.43-1.07A6.24,6.24,0,0,0,12.73,21a.49.49,0,0,0-.15-.68Z"/><path class="cls-5" d="M15,15.63l-.73-1.82a.51.51,0,0,0-.65-.28L12.56,14a6.16,6.16,0,0,0-1.31-1.34l.45-1.06a.5.5,0,0,0-.26-.65h0l-1.81-.77A.5.5,0,0,0,9,10.4H9l-.45,1.06a6.24,6.24,0,0,0-1.88,0l-.43-1.07a.49.49,0,0,0-.65-.27l-1.82.73a.5.5,0,0,0-.28.65h0l.43,1.07a6.24,6.24,0,0,0-1.58,1.66.5.5,0,1,0,.84.54,5.23,5.23,0,0,1,1.62-1.59.49.49,0,0,0,.2-.61l-.4-1,.9-.36.4,1a.49.49,0,0,0,.56.3,5.11,5.11,0,0,1,2.27,0,.5.5,0,0,0,.57-.29l.42-1,.89.38-.42,1a.51.51,0,0,0,.19.61A5.23,5.23,0,0,1,12,14.84a.49.49,0,0,0,.61.2l1-.39.36.89-1,.4a.49.49,0,0,0-.3.57,5.07,5.07,0,0,1,0,2.26.52.52,0,0,0,.29.58l1,.41-.57,1.35a.5.5,0,0,0,.91.39L15,19.69a.5.5,0,0,0-.26-.65h0l-1.06-.45a6.24,6.24,0,0,0,0-1.88l1.07-.43a.49.49,0,0,0,.27-.65Z"/><path class="cls-5" d="M19.11,8.73a.49.49,0,0,0-.67.2h0L18.37,9a.5.5,0,0,0,.82.56l.12-.2a.49.49,0,0,0-.2-.67Z"/><path class="cls-5" d="M19.49,7.51a2.42,2.42,0,1,0-2.31,3.16.5.5,0,0,0,.5-.5.5.5,0,0,0-.5-.5,1.43,1.43,0,1,1,1.36-1.86.5.5,0,0,0,.64.31A.49.49,0,0,0,19.49,7.51Z"/><path class="cls-5" d="M22.46,7h-.75a4.4,4.4,0,0,0-.46-1.12l.53-.53a.51.51,0,0,0,0-.71h0l-1-1a.51.51,0,0,0-.71,0l-.52.53a4.63,4.63,0,0,0-1.13-.46V3a.5.5,0,0,0-.49-.5H16.46A.5.5,0,0,0,16,3h0v.75a4.63,4.63,0,0,0-1.13.46l-.52-.53a.51.51,0,0,0-.71,0l-1,1a.51.51,0,0,0,0,.71l.53.53A4.4,4.4,0,0,0,12.66,7h-.75a.49.49,0,0,0-.5.49V9a.5.5,0,0,0,.5.5h.75a4.72,4.72,0,0,0,.46,1.12l-.53.52a.51.51,0,0,0,0,.71l1,1a.51.51,0,0,0,.71,0l.81-.81a.5.5,0,0,0-.69-.72h0l-.45.46-.32-.31.46-.46a.5.5,0,0,0,.05-.64,3.62,3.62,0,0,1-.61-1.49.5.5,0,0,0-.5-.41h-.64V8h.64a.5.5,0,0,0,.5-.41,3.68,3.68,0,0,1,.61-1.49.5.5,0,0,0-.05-.64L13.65,5,14,4.71l.45.46a.5.5,0,0,0,.64,0,3.68,3.68,0,0,1,1.49-.61A.49.49,0,0,0,17,4.12V3.47h.45v.65a.49.49,0,0,0,.41.49,3.68,3.68,0,0,1,1.49.61.5.5,0,0,0,.64,0l.45-.46.32.32-.46.45a.5.5,0,0,0-.05.64,3.68,3.68,0,0,1,.61,1.49.5.5,0,0,0,.49.41H22v.45h-.65a.5.5,0,0,0-.49.41,3.62,3.62,0,0,1-.61,1.49.5.5,0,0,0,.05.64l.46.46-.31.31L20,11.32a.5.5,0,0,0-.64-.05,3.62,3.62,0,0,1-1.49.61.5.5,0,0,0-.41.5V13h-.95a.5.5,0,0,0-.49.5.49.49,0,0,0,.49.5h1.45a.49.49,0,0,0,.49-.5h0v-.74a5.09,5.09,0,0,0,1.13-.47l.52.53a.51.51,0,0,0,.71,0l1-1a.51.51,0,0,0,0-.71h0l-.53-.52a4.72,4.72,0,0,0,.46-1.12h.75A.5.5,0,0,0,23,9V7.52a.49.49,0,0,0-.5-.49Z"/></svg>