<svg id="Layer_1" data-name="Layer 1" xmlns="http://www.w3.org/2000/svg" width="50" height="67.24" viewBox="0 0 50 67.24"><defs><style>.cls-1{fill:#deedf3;}.cls-2{fill:#48a1d9;}.cls-3{fill:#f2da33;}.cls-4{fill:#606b7a;}</style></defs><title>icons.0</title><path class="cls-1" d="M13.88,1H49V66.25H1V13.88Z"/><path class="cls-2" d="M13.88,13.88H1L13.88,1Z"/><path class="cls-3" d="M10.88,49.78h3.77v8.5H10.88Z"/><path class="cls-3" d="M19,43.8h3.78V58.28H19Z"/><path class="cls-3" d="M27.19,46.1H31V58.28H27.19Z"/><path class="cls-3" d="M35.35,39.67h3.77V58.28H35.35Z"/><path class="cls-4" d="M1,50.49a1,1,0,0,0,1-1V47a1,1,0,0,0-2,0v2.55a1,1,0,0,0,1,1Z"/><path class="cls-4" d="M49,0H13.88L13.7,0h0a1.13,1.13,0,0,0-.24.08l0,0a1.16,1.16,0,0,0-.21.16L.29,13.18a.8.8,0,0,0-.15.21l0,0a1.17,1.17,0,0,0-.09.24H0a1.23,1.23,0,0,0,0,.19V42.07a1,1,0,0,0,2,0V14.87h11.9a1,1,0,0,0,1-1V2H48V65.26H2V54.16a1,1,0,0,0-2,0V66.25a1,1,0,0,0,1,1H49a1,1,0,0,0,1-1V1a1,1,0,0,0-1-1ZM12.89,12.89H3.38l9.51-9.51Z"/><path class="cls-4" d="M10.88,28.74H39.12a1,1,0,1,0,0-2H10.88a1,1,0,0,0,0,2Z"/><path class="cls-4" d="M10.88,34.92H39.12a1,1,0,0,0,0-2H10.88a1,1,0,1,0,0,2Z"/><path class="cls-4" d="M9.89,21.57a1,1,0,0,0,1,1H39.12a1,1,0,0,0,0-2H10.88a1,1,0,0,0-1,1Z"/><path class="cls-4" d="M39.12,9.94a1,1,0,1,0,0-2h-15a1,1,0,1,0,0,2Z"/><path class="cls-4" d="M9.89,58.28a1,1,0,0,0,1,1h3.78a1,1,0,0,0,1-1V49.77a1,1,0,0,0-1-1H10.88a1,1,0,0,0-1,1Zm2-7.52h1.8v6.53h-1.8Z"/><path class="cls-4" d="M19,42.81a1,1,0,0,0-1,1V58.28a1,1,0,0,0,1,1h3.78a1,1,0,0,0,1-1h0V43.8a1,1,0,0,0-1-1Zm2.79,14.48H20V44.79h1.8Z"/><path class="cls-4" d="M27.19,45.11a1,1,0,0,0-1,1V58.28a1,1,0,0,0,1,1H31a1,1,0,0,0,1-1V46.1a1,1,0,0,0-1-1ZM30,57.29h-1.8V47.09H30Z"/><path class="cls-4" d="M39.12,38.68H35.35a1,1,0,0,0-1,1V58.28a1,1,0,0,0,1,1h3.77a1,1,0,0,0,1-1h0V39.67a1,1,0,0,0-1-1Zm-1,18.61H36.34V40.66h1.79Z"/></svg>