<svg id="Layer_1" data-name="Layer 1" xmlns="http://www.w3.org/2000/svg" width="50" height="65.64" viewBox="0 0 50 65.64"><defs><style>.cls-1{fill:#f9d011;}.cls-2{fill:#2c4e67;}.cls-3{fill:#606b7a;}</style></defs><title>icons.0</title><polygon class="cls-1" points="10.35 6.27 3.56 6.82 4.28 16.96 8.6 21.31 11.48 22.29 12.56 6.27 10.35 6.27"/><polygon class="cls-1" points="12.56 1.8 13.09 23.95 19.14 32.17 20.15 39.64 31.05 40.13 31.05 30.66 36.5 23.03 37.55 20.27 37.55 3.85 37.55 2.41 12.56 1.8"/><polygon class="cls-1" points="39.76 5.97 46.55 6.53 45.83 16.66 41.51 21.01 38.63 21.99 37.55 5.97 39.76 5.97"/><rect class="cls-2" x="5.13" y="56.29" width="11.49" height="9.35"/><rect class="cls-2" x="32.98" y="56.29" width="11.49" height="9.35"/><path class="cls-3" d="M48.08,61.79h-.64V56a1.93,1.93,0,0,0-1.93-1.93H41V48.33a1.93,1.93,0,0,0-1.93-1.92H26.92v-4.1h8.34a1.93,1.93,0,0,0,0-3.85H32.05V35.13a8.74,8.74,0,0,1,3.16-6.73,12.59,12.59,0,0,0,3.21-4.06,10.91,10.91,0,0,0,10.3-10.88V9.62A5.77,5.77,0,0,0,43,3.85H39.74V1.92A1.92,1.92,0,0,0,37.82,0H12.18a1.92,1.92,0,0,0-1.92,1.92V3.85H7.05A5.77,5.77,0,0,0,1.28,9.62v3.84a10.91,10.91,0,0,0,10.3,10.88,12.59,12.59,0,0,0,3.21,4.06A8.74,8.74,0,0,1,18,35.13v3.33H14.74a1.93,1.93,0,0,0,0,3.85h8.34v4.1H10.9A1.93,1.93,0,0,0,9,48.33V54.1H4.49A1.93,1.93,0,0,0,2.56,56v5.76H1.92a1.93,1.93,0,0,0,0,3.85H7.05a1.93,1.93,0,0,0,0-3.85H6.41V58h9v3.84h-.64a1.93,1.93,0,0,0,0,3.85h5.13a1.93,1.93,0,0,0,0-3.85h-.64V56a1.92,1.92,0,0,0-1.92-1.93H12.82V50.26H37.18V54.1H32.69A1.92,1.92,0,0,0,30.77,56v5.76h-.64a1.93,1.93,0,0,0,0,3.85h5.13a1.93,1.93,0,0,0,0-3.85h-.64V58h9v3.84H43a1.93,1.93,0,0,0,0,3.85h5.13a1.93,1.93,0,0,0,0-3.85ZM43,7.69a1.93,1.93,0,0,1,1.92,1.93v3.84a7.06,7.06,0,0,1-5.22,6.81,13.34,13.34,0,0,0,.09-1.56v-11ZM5.13,13.46V9.62A1.93,1.93,0,0,1,7.05,7.69h3.21v11a13.34,13.34,0,0,0,.09,1.56A7.06,7.06,0,0,1,5.13,13.46Zm12.13,12a8.74,8.74,0,0,1-3.16-6.74V3.85H35.9V18.71a8.74,8.74,0,0,1-3.16,6.74,12.57,12.57,0,0,0-4.53,9.68v3.33H21.79V35.13a12.57,12.57,0,0,0-4.53-9.68Z"/><path class="cls-3" d="M23.44,11.54V25a1.93,1.93,0,0,0,3.85,0V9.62a1.93,1.93,0,0,0-1.93-1.93H22.07a1.93,1.93,0,0,0,0,3.85Z"/></svg>