<svg id="Layer_1" data-name="Layer 1" xmlns="http://www.w3.org/2000/svg" width="50" height="50" viewBox="0 0 50 50"><defs><style>.cls-1{fill:#eef6fc;}.cls-2{fill:#ccdaf0;}.cls-3{fill:#b1c8e8;}.cls-4{fill:#817e85;}.cls-5{fill:#766f7a;}.cls-6{fill:#d8e2f3;}.cls-7{fill:#f2cdbf;}.cls-8{fill:#f6e1c1;}.cls-9{fill:#f2d0ad;}.cls-10{fill:#606b7a;}</style></defs><title>icons.0</title><path class="cls-1" d="M48.56,20.86l-2.48-.31a.8.8,0,0,1-.68-.61A21,21,0,0,0,43,14.16a.8.8,0,0,1,.06-.91l1.53-2a.8.8,0,0,0-.06-1.07L39.8,5.48a.8.8,0,0,0-1.07-.06L36.74,7a.8.8,0,0,1-.91.06,20.81,20.81,0,0,0-5.77-2.39.8.8,0,0,1-.61-.69l-.31-2.5a.82.82,0,0,0-.8-.71H21.67a.82.82,0,0,0-.81.71l-.31,2.5a.8.8,0,0,1-.61.69A20.81,20.81,0,0,0,14.17,7,.8.8,0,0,1,13.26,7l-2-1.54a.8.8,0,0,0-1.07.06L5.48,10.2a.8.8,0,0,0-.06,1.07l1.54,2a.82.82,0,0,1,0,.91A21.36,21.36,0,0,0,4.6,19.94a.8.8,0,0,1-.68.61l-2.48.31a.82.82,0,0,0-.71.81v6.66a.82.82,0,0,0,.71.81l2.46.31a.8.8,0,0,1,.69.61A20.78,20.78,0,0,0,7,35.87a.8.8,0,0,1-.06.91L5.42,38.73a.8.8,0,0,0,.06,1.07l4.72,4.72a.8.8,0,0,0,1.07.06l1.94-1.5a.8.8,0,0,1,.91-.06A21,21,0,0,0,20,45.44a.81.81,0,0,1,.61.68l.3,2.44a.82.82,0,0,0,.81.71h6.67a.82.82,0,0,0,.8-.71l.3-2.44a.81.81,0,0,1,.61-.68A21,21,0,0,0,35.88,43a.8.8,0,0,1,.91.06l1.94,1.5a.8.8,0,0,0,1.07-.06l4.72-4.72a.8.8,0,0,0,.06-1.07l-1.51-1.95a.8.8,0,0,1-.06-.91,20.78,20.78,0,0,0,2.4-5.81.81.81,0,0,1,.69-.61l2.46-.31a.82.82,0,0,0,.71-.81V21.67a.82.82,0,0,0-.71-.81Z"/><circle class="cls-2" cx="25" cy="25.01" r="14.56"/><path class="cls-3" d="M25,10.45c-.38,0-.75,0-1.12.05a14.56,14.56,0,0,1,0,29c.37,0,.74,0,1.12,0a14.56,14.56,0,1,0,0-29.12Z"/><path class="cls-4" d="M28.24,26.63l-3.32.49-3.16-.49a4.85,4.85,0,0,0-4.85,4.85v5.64a14.58,14.58,0,0,0,16.18,0V31.48A4.85,4.85,0,0,0,28.24,26.63Z"/><path class="cls-5" d="M28.24,26.63H26a4.86,4.86,0,0,1,4.86,4.85v6.87a14.77,14.77,0,0,0,2.24-1.23V31.48a4.85,4.85,0,0,0-4.85-4.85Z"/><path class="cls-6" d="M28.24,32.56,25.69,36.8a.81.81,0,0,1-1.38,0l-2.55-4.24V30.8h6.48Z"/><path class="cls-1" d="M28.24,26.63l1.26,5a.82.82,0,0,1-1,1L25,31.48l-3.46,1.16a.82.82,0,0,1-1-1l1.26-5Z"/><path class="cls-7" d="M23.93,24.53h2v4.2h-2Z"/><path class="cls-8" d="M29.85,16.73v5.05a4.84,4.84,0,0,1-4.93,4.85,4.9,4.9,0,0,1-4.77-4.93v-5Z"/><path class="cls-9" d="M27.61,16.73v5.05a4.86,4.86,0,0,1-3.73,4.72,5.1,5.1,0,0,0,1,.13,4.84,4.84,0,0,0,4.93-4.85V16.73Z"/><path class="cls-6" d="M21.76,26.63,25,31.48l3.24-4.85Z"/><path class="cls-4" d="M30.66,17.73v-.81a3.23,3.23,0,0,0-3.23-3.23H22.57a3.23,3.23,0,0,0-3.23,3.23v.81a.81.81,0,0,0,.81.81h9.7A.81.81,0,0,0,30.66,17.73Z"/><path class="cls-5" d="M27.43,13.69H25.18a3.24,3.24,0,0,1,3.24,3.23v.81a.81.81,0,0,1-.81.81h2.24a.81.81,0,0,0,.81-.81v-.81A3.23,3.23,0,0,0,27.43,13.69Z"/><path class="cls-6" d="M48.56,20.86l-2.48-.31a.8.8,0,0,1-.68-.61A21,21,0,0,0,43,14.16a.8.8,0,0,1,.06-.91l1.53-2a.8.8,0,0,0-.06-1.07L39.8,5.48a.8.8,0,0,0-1.07-.06L38,6l4.24,4.24a.81.81,0,0,1,.07,1.07l-1.54,2a.78.78,0,0,0,0,.91,21,21,0,0,1,2.4,5.78.8.8,0,0,0,.69.61l2.47.31a.81.81,0,0,1,.71.81v6.66a.81.81,0,0,1-.71.81l-2.46.31a.8.8,0,0,0-.68.61,21.08,21.08,0,0,1-2.4,5.81.82.82,0,0,0,0,.91l1.52,1.95a.81.81,0,0,1-.07,1.07L38,44l.7.54a.8.8,0,0,0,1.07-.06l4.72-4.72a.8.8,0,0,0,.06-1.07l-1.51-1.95a.8.8,0,0,1-.06-.91,20.78,20.78,0,0,0,2.4-5.81.81.81,0,0,1,.69-.61l2.46-.31a.82.82,0,0,0,.71-.81V21.67a.82.82,0,0,0-.71-.81Z"/><path class="cls-10" d="M25,40.35A15.32,15.32,0,1,0,9.69,25,15.33,15.33,0,0,0,25,40.35Zm-7.37-3.6V31.51a4.14,4.14,0,0,1,3.16-4l-1,4a1.54,1.54,0,0,0,1.49,1.91h.13l2.27,3.77a1.54,1.54,0,0,0,2.64,0l2.27-3.77h.13a1.54,1.54,0,0,0,1.49-1.91l-1-4a4.14,4.14,0,0,1,3.16,4v5.24a13.82,13.82,0,0,1-14.74,0Zm2.43-19v-.81a2.51,2.51,0,0,1,2.51-2.5h4.86a2.51,2.51,0,0,1,2.51,2.5v.81a.08.08,0,0,1-.08.08H20.14a.08.08,0,0,1-.08-.08Zm.81,1.55h8.26v2.5a4.13,4.13,0,0,1-4.2,4.13,4.19,4.19,0,0,1-4.06-4.21ZM28.48,31.9l-2.34-.78,1.79-2.68.86,3.44a.07.07,0,0,1,0,.08.06.06,0,0,1-.08,0l-.21-.07Zm-7,0-.21.07a.06.06,0,0,1-.08,0s0-.07,0-.08l.86-3.44,1.79,2.68-2.34.78ZM25,30.19l-1.87-2.8h3.74Zm0,2.1,2.14.71-2.07,3.46a.08.08,0,0,1-.14,0L22.86,33Zm0-21.1a13.84,13.84,0,0,1,8.83,24.5V31.51A5.59,5.59,0,0,0,28.75,26l.17-.17a5.53,5.53,0,0,0,1.67-4V19.1a1.55,1.55,0,0,0,.81-1.36v-.81a4,4,0,0,0-4-4H22.57a4,4,0,0,0-4,4v.81a1.55,1.55,0,0,0,.81,1.36v2.61a5.69,5.69,0,0,0,1.88,4.23,5.6,5.6,0,0,0-5.12,5.57v4.18A13.84,13.84,0,0,1,25,11.19Z"/><path class="cls-10" d="M11.88,13a.73.73,0,0,0-1,.09A18.45,18.45,0,1,0,13,10.88a.74.74,0,0,0-.08,1A.73.73,0,0,0,14,12a17,17,0,1,1-2,2,.72.72,0,0,0-.08-1Z"/><path class="cls-10" d="M48.65,20.13l-2.48-.3a.09.09,0,0,1-.06-.06,21.7,21.7,0,0,0-2.49-6,.06.06,0,0,1,0-.08l1.54-2a1.54,1.54,0,0,0-.12-2L40.32,5a1.55,1.55,0,0,0-2-.12l-2,1.54a.06.06,0,0,1-.08,0,21.65,21.65,0,0,0-6-2.47.07.07,0,0,1-.06-.07l-.31-2.5A1.55,1.55,0,0,0,28.33,0H21.67a1.55,1.55,0,0,0-1.54,1.35l-.31,2.5a.07.07,0,0,1-.06.07,21.65,21.65,0,0,0-6,2.47.06.06,0,0,1-.08,0l-2-1.54a1.55,1.55,0,0,0-2,.12L5,9.68a1.55,1.55,0,0,0-.12,2l1.54,2a.06.06,0,0,1,0,.08,21.7,21.7,0,0,0-2.49,6s0,.05-.06.06l-2.48.3A1.55,1.55,0,0,0,0,21.67v6.66a1.55,1.55,0,0,0,1.35,1.54l2.46.3a.11.11,0,0,1,.07.06,21.68,21.68,0,0,0,2.48,6,.06.06,0,0,1,0,.08l-1.51,2a1.55,1.55,0,0,0,.12,2L9.68,45a1.54,1.54,0,0,0,2,.12l1.94-1.51a.06.06,0,0,1,.08,0,21.79,21.79,0,0,0,6,2.5.07.07,0,0,1,.06.07l.3,2.43A1.55,1.55,0,0,0,21.67,50h6.66a1.55,1.55,0,0,0,1.54-1.35l.3-2.43a.07.07,0,0,1,.06-.07c.62-.15,1.25-.34,1.86-.55a.73.73,0,1,0-.48-1.38c-.57.19-1.15.36-1.73.51A1.53,1.53,0,0,0,28.72,46l-.31,2.44a.08.08,0,0,1-.08.07H21.67a.08.08,0,0,1-.08-.07L21.28,46a1.53,1.53,0,0,0-1.16-1.3A20.49,20.49,0,0,1,14.5,42.4a1.54,1.54,0,0,0-1.74.1L10.82,44a.08.08,0,0,1-.1,0L6,39.28a.08.08,0,0,1,0-.1l1.52-2a1.54,1.54,0,0,0,.1-1.74A20,20,0,0,1,5.3,29.88,1.55,1.55,0,0,0,4,28.72l-2.46-.31a.08.08,0,0,1-.07-.07V21.67a.08.08,0,0,1,.07-.08L4,21.28a1.54,1.54,0,0,0,1.3-1.16,20.22,20.22,0,0,1,2.32-5.58,1.54,1.54,0,0,0-.1-1.74L6,10.82a.08.08,0,0,1,0-.1L10.72,6a.08.08,0,0,1,.1,0l2,1.55a1.54,1.54,0,0,0,1.74.1,20.29,20.29,0,0,1,5.57-2.3A1.56,1.56,0,0,0,21.28,4l.31-2.51a.08.08,0,0,1,.08-.07h6.66a.08.08,0,0,1,.08.07L28.72,4a1.56,1.56,0,0,0,1.16,1.3,20.29,20.29,0,0,1,5.57,2.3,1.54,1.54,0,0,0,1.74-.1l2-1.55a.08.08,0,0,1,.1,0L44,10.72a.08.08,0,0,1,0,.1l-1.54,2a1.54,1.54,0,0,0-.1,1.74,20.22,20.22,0,0,1,2.32,5.58A1.54,1.54,0,0,0,46,21.28l2.48.31a.08.08,0,0,1,.07.08v6.67a.08.08,0,0,1-.07.07L46,28.72a1.55,1.55,0,0,0-1.31,1.16,20,20,0,0,1-2.31,5.61,1.54,1.54,0,0,0,.1,1.74l1.52,2a.08.08,0,0,1,0,.1L39.28,44a.08.08,0,0,1-.1,0L37.24,42.5a1.54,1.54,0,0,0-1.74-.1c-.42.25-.85.49-1.29.71a.74.74,0,1,0,.67,1.31c.46-.24.93-.5,1.38-.77a.06.06,0,0,1,.08,0l1.94,1.51a1.54,1.54,0,0,0,2-.12L45,40.32a1.55,1.55,0,0,0,.12-2l-1.51-2a.06.06,0,0,1,0-.08,21.68,21.68,0,0,0,2.48-6,.11.11,0,0,1,.07-.06l2.46-.3A1.55,1.55,0,0,0,50,28.34V21.67a1.55,1.55,0,0,0-1.35-1.54Z"/></svg>